<?xml version="1.0" encoding="utf-8"?>
<!-- Generator: Adobe Illustrator 25.4.1, SVG Export Plug-In . SVG Version: 6.00 Build 0)  -->
<svg version="1.1" id="Layer_3" xmlns="http://www.w3.org/2000/svg" xmlns:xlink="http://www.w3.org/1999/xlink" x="0px" y="0px"
	 viewBox="0 0 512 512" style="enable-background:new 0 0 512 512;" xml:space="preserve">
<style type="text/css">
	.st0{fill:url(#SVGID_1_);}
	.st1{fill:url(#SVGID_00000130616250225482101620000012721704441974429368_);}
	.st2{fill:#FEC931;}
	.st3{fill:#A6A0F9;}
	.st4{fill:#7E1AFF;}
</style>
<linearGradient id="SVGID_1_" gradientUnits="userSpaceOnUse" x1="-851.7849" y1="-379.5993" x2="-1772.876" y2="-175.5792" gradientTransform="matrix(-1 0 0 -1 -854.5206 -54)">
	<stop  offset="0" style="stop-color:#D2DEFF;stop-opacity:0"/>
	<stop  offset="1" style="stop-color:#B7C5FF"/>
</linearGradient>
<path class="st0" d="M83.6,171.9c-55.9,55.9-31.8,170.6,53.8,256.2s200.3,109.7,256.2,53.8c31.9-31.9,37.7-82.9,21-136.8
	c-11.8-37.9-5.9-79.2,17-111.7c18-25.6,28.1-57.1,26.9-91C455.5,63.2,389.6-0.1,310.3,0c-60.6,0-112.6,36.4-135.6,88.6
	c-12.4,28.2-34.4,50.9-62.4,63.6C101.6,157,92,163.5,83.6,171.9L83.6,171.9z"/>
<linearGradient id="SVGID_00000125565949593258613940000017905068975496746114_" gradientUnits="userSpaceOnUse" x1="-851.7849" y1="-379.5993" x2="-1772.876" y2="-175.5792" gradientTransform="matrix(-1 0 0 -1 -854.5206 -54)">
	<stop  offset="0" style="stop-color:#D2DEFF;stop-opacity:0"/>
	<stop  offset="1" style="stop-color:#B7C5FF"/>
</linearGradient>
<path style="fill:url(#SVGID_00000125565949593258613940000017905068975496746114_);" d="M83.6,171.9
	c-55.9,55.9-31.8,170.6,53.8,256.2s200.3,109.7,256.2,53.8c31.9-31.9,37.7-82.9,21-136.8c-11.8-37.9-5.9-79.2,17-111.7
	c18-25.6,28.1-57.1,26.9-91C455.5,63.2,389.6-0.1,310.3,0c-60.6,0-112.6,36.4-135.6,88.6c-12.4,28.2-34.4,50.9-62.4,63.6
	C101.6,157,92,163.5,83.6,171.9L83.6,171.9z"/>
<g>
	<g>
		<path class="st2" d="M392.3,410.7c0,7.3-5.9,13.2-13.2,13.2c-7.3,0-13.2-5.9-13.2-13.2s5.9-13.2,13.2-13.2
			S392.3,403.4,392.3,410.7z M382.3,410.7c0-1.8-1.5-3.2-3.2-3.2s-3.2,1.4-3.2,3.2c0,1.8,1.5,3.2,3.2,3.2S382.3,412.5,382.3,410.7z"
			/>
	</g>
	<g>
		<path class="st3" d="M426.8,48.2c0,7.3-5.9,13.2-13.2,13.2c-7.3,0-13.2-5.9-13.2-13.2S406.3,35,413.6,35S426.8,40.9,426.8,48.2z
			 M416.8,48.2c0-1.8-1.5-3.2-3.2-3.2s-3.2,1.5-3.2,3.2s1.5,3.2,3.2,3.2S416.8,50,416.8,48.2z"/>
	</g>
	<g>
		<path class="st3" d="M278.5,473.2c0,7.3-5.9,13.2-13.2,13.2c-7.3,0-13.2-5.9-13.2-13.2S258,460,265.3,460S278.5,465.9,278.5,473.2
			z M268.5,473.2c0-1.8-1.4-3.2-3.2-3.2s-3.2,1.4-3.2,3.2s1.5,3.2,3.2,3.2C267,476.4,268.5,475,268.5,473.2z"/>
	</g>
	<g>
		<path class="st4" d="M104.4,379.6l11.3,11.3c0.9,0.9,1.5,2.2,1.5,3.5s-0.5,2.6-1.5,3.5l-11.3,11.3c-2,1.9-5.1,1.9-7.1,0L86,398
			c-2-2-2-5.1,0-7.1l11.3-11.3c1-1,2.3-1.5,3.5-1.5S103.4,378.6,104.4,379.6z M100.8,398.7l4.2-4.2l-4.2-4.2l-4.2,4.2L100.8,398.7z"
			/>
	</g>
	<g>
		<path class="st2" d="M101.6,144.1l11.3,11.3c0.9,0.9,1.5,2.2,1.5,3.5s-0.5,2.6-1.5,3.5l-11.3,11.3c-1.9,2-5.1,2-7.1,0l-11.3-11.3
			c-1.9-2-1.9-5.1,0-7.1L94.5,144c0.9-0.9,2.2-1.5,3.5-1.5C99.4,142.7,100.7,143.2,101.6,144.1z M98.1,163.2l4.2-4.2l-4.2-4.2
			l-4.2,4.2L98.1,163.2z"/>
	</g>
</g>
<g>
	<g>
		<path class="st4" d="M470.1,311.8l-7.2-3.2c-0.3-1-0.6-2-0.9-2.9l4-6.9c0.9-1.6,0.9-3.5,0-5.1c-2.1-3.7-4.6-7.2-7.5-10.4
			c-1.3-1.4-3.2-2-5-1.6l-7.5,1.7c-0.7-0.6-1.5-1.1-2.3-1.7l-0.7-8c-0.2-1.8-1.3-3.5-3-4.2c-3.8-1.8-7.9-3.2-12-4
			c-1.9-0.4-3.8,0.3-5,1.7l-5.3,6.1h-2.5l-5.3-6.1c-1.2-1.4-3.1-2.1-5-1.7c-4.2,0.9-8.2,2.2-12,4c-1.7,0.8-2.8,2.4-3,4.2l-0.7,8
			c-0.8,0.5-1.5,1.1-2.3,1.7l-7.5-1.7c-1.8-0.4-3.8,0.2-5,1.6c-2.9,3.2-5.4,6.7-7.5,10.4c-0.9,1.6-0.9,3.6,0,5.1l4,6.9
			c-0.3,0.9-0.6,1.9-0.9,2.9l-7.2,3.2c-1.9,0.8-3.1,2.7-3.1,4.8v11.8c0,2.1,1.2,3.9,3.1,4.8l7.2,3.2c0.3,1,0.6,2,0.9,2.9l-4,6.9
			c-0.9,1.6-0.9,3.5,0,5.1c2.1,3.7,4.6,7.2,7.5,10.4c1.3,1.4,3.2,2,5,1.6l7.5-1.7c0.7,0.6,1.5,1.1,2.3,1.7l0.7,8
			c0.2,1.8,1.3,3.5,3,4.2c3.8,1.8,7.9,3.2,12,4c1.9,0.4,3.8-0.3,5-1.7l5.3-6.1h2.5l5.3,6.1c1,1.1,2.4,1.8,3.9,1.8
			c0.4,0,0.7,0,1.1-0.1c4.2-0.9,8.2-2.2,12-4c1.7-0.8,2.8-2.4,3-4.2l0.7-8c0.8-0.5,1.5-1.1,2.3-1.7l7.5,1.7c1.8,0.4,3.8-0.2,5-1.6
			c2.9-3.2,5.4-6.7,7.5-10.4c0.9-1.6,0.9-3.6,0-5.1l-4-6.9c0.3-0.9,0.6-1.9,0.9-2.9l7.2-3.2c1.9-0.8,3.1-2.7,3.1-4.8v-11.8
			C473.2,314.5,472,312.6,470.1,311.8z M456.5,327.8c-1.5,0.7-2.6,2-3,3.6c-0.5,2.1-1.1,4.2-2,6.3c-0.6,1.5-0.5,3.2,0.3,4.6l3.7,6.4
			c-0.8,1.3-1.7,2.6-2.7,3.8l-7-1.6c-1.6-0.4-3.3,0.1-4.6,1.2c-1.6,1.4-3.4,2.7-5.2,3.8c-1.4,0.9-2.3,2.3-2.4,3.9l-0.7,7.4
			c-1.4,0.5-2.8,1-4.2,1.4l-4.8-5.5c-1-1.1-2.4-1.8-3.9-1.8h-7.3c-1.5,0-2.9,0.7-3.9,1.8l-4.8,5.5c-1.4-0.4-2.8-0.9-4.2-1.4
			l-0.7-7.4c-0.1-1.6-1.1-3.1-2.4-3.9c-1.8-1.1-3.6-2.4-5.2-3.8c-1.3-1.1-3-1.5-4.6-1.2l-7,1.6c-1-1.2-1.9-2.5-2.7-3.8l3.7-6.4
			c0.8-1.4,0.9-3.1,0.3-4.6c-0.8-2-1.5-4.1-2-6.3c-0.4-1.6-1.5-2.9-3-3.6l-6.4-2.8v-5l6.4-2.8c1.5-0.7,2.6-2,3-3.6
			c0.5-2.1,1.1-4.2,2-6.3c0.6-1.5,0.5-3.2-0.3-4.6l-3.7-6.4c0.8-1.3,1.7-2.6,2.7-3.8l7,1.6c1.6,0.4,3.3-0.1,4.6-1.2
			c1.6-1.4,3.4-2.7,5.2-3.8c1.4-0.9,2.3-2.3,2.4-3.9l0.7-7.4c1.4-0.5,2.8-1,4.2-1.4l4.8,5.5c1,1.1,2.4,1.8,3.9,1.8h7.3
			c1.5,0,2.9-0.7,3.9-1.8l4.8-5.5c1.4,0.4,2.8,0.9,4.2,1.4l0.7,7.4c0.1,1.6,1.1,3.1,2.4,3.9c1.8,1.1,3.6,2.4,5.2,3.8
			c1.3,1.1,3,1.5,4.6,1.2l7-1.6c1,1.2,1.9,2.5,2.7,3.8l-3.7,6.4c-0.8,1.4-0.9,3.1-0.3,4.6c0.8,2,1.5,4.1,2,6.3
			c0.4,1.6,1.5,2.9,3,3.6l6.4,2.8v5L456.5,327.8z"/>
	</g>
</g>
<g>
	<g>
		<path class="st4" d="M416.4,296.5c-14.3,0-26,11.6-26,26s11.6,26,26,26s26-11.6,26-26C442.4,308.1,430.8,296.5,416.4,296.5z
			 M416.4,338c-8.6,0-15.6-7-15.6-15.6s7-15.6,15.6-15.6s15.6,7,15.6,15.6C432,331,425,338,416.4,338z"/>
	</g>
</g>
<g>
	<g>
		<path class="st4" d="M307.4,88.7c-43,0-77.9,34.9-77.9,77.9c0,43,34.9,77.9,77.9,77.9c43,0,77.9-34.9,77.9-77.9
			S350.4,88.7,307.4,88.7z M242.7,185.9c-10.6-35.7,9.7-73.3,45.4-84c6.3-1.9,12.7-2.8,19.3-2.8c6.5,0,13,1,19.2,2.8
			c-1.3,0.8-2.6,1.6-3.8,2.5c-1.8,1.3-2.5,3.7-1.8,5.8l2.4,7.3c-1,0.9-1.9,1.9-2.9,2.9l-7.3-2.4c-2.1-0.7-4.4,0-5.8,1.8
			c-3.8,5-7,10.5-9.6,16.3c-0.9,2-0.3,4.4,1.3,5.9l5.8,5.2c-0.4,1.3-0.7,2.6-1.1,3.9l-7.5,1.6c-2.4,0.5-4.1,2.6-4.1,5.1v17.7
			c0,2.5,1.7,4.6,4.1,5.1l7.5,1.6c0.3,1.3,0.7,2.6,1,3.9l-5.8,5.2c-1.7,1.5-2.2,3.9-1.3,5.9c2.5,5.8,5.7,11.3,9.5,16.3
			c1.3,1.8,3.7,2.5,5.8,1.8l7.3-2.4c0.9,1,1.9,1.9,2.9,2.9L321,223c-0.7,2.1,0,4.4,1.8,5.8c1.2,0.9,2.5,1.7,3.8,2.5
			C290.9,242,253.3,221.6,242.7,185.9z M338.7,226.4c-2.2-1.1-4.4-2.4-6.6-3.8l2.2-6.8c0.7-2,0-4.2-1.6-5.6c-2.4-2-4.6-4.2-6.6-6.6
			c-1.4-1.6-3.6-2.2-5.6-1.6l-6.9,2.3c-1.7-2.5-3.2-5.1-4.6-7.8l5.4-4.9c1.6-1.4,2.1-3.6,1.4-5.6c-1.1-2.9-1.9-6-2.4-9
			c-0.4-2.1-2-3.7-4-4.2l-6.7-1.4V162l6.7-1.4c2.1-0.4,3.7-2.1,4-4.2c0.6-3.1,1.4-6.1,2.4-9.1c0.7-2,0.2-4.2-1.4-5.6l-5.4-4.9
			c1.4-2.7,2.9-5.3,4.6-7.8l6.9,2.3c2,0.7,4.2,0,5.6-1.6c2-2.4,4.2-4.6,6.6-6.6c1.6-1.4,2.2-3.6,1.6-5.6l-2.2-6.8
			c2.1-1.4,4.3-2.6,6.6-3.8c7.1,3.7,13.5,8.7,18.8,14.7c-24.9,6.7-39.6,32.3-33,57.2c4.3,16.1,16.9,28.6,33,33
			C352.1,217.7,345.8,222.7,338.7,226.4z M333.7,161.5c2.3-15.9,14.8-28.4,30.7-30.7c13.9,21.9,13.9,49.9,0,71.8
			C344.6,199.7,330.9,181.3,333.7,161.5z"/>
	</g>
</g>
<g>
	<g>
		<path class="st4" d="M444.2,156.6l-6.2-2.7c-0.2-0.7-0.4-1.5-0.7-2.2l3.5-6c0.9-1.6,0.9-3.5,0-5.1c-1.9-3.4-4.2-6.6-6.8-9.5
			c-1.3-1.4-3.2-2-5-1.6l-6.5,1.5c-0.6-0.4-1.1-0.8-1.7-1.2l-0.6-7c-0.2-1.8-1.3-3.5-3-4.2c-3.5-1.6-7.2-2.9-11-3.7
			c-1.8-0.4-3.6,0.2-4.9,1.6l-5.7,6.2c-24.2-48.8-83.3-68.7-132.1-44.5s-68.7,83.3-44.5,132.1c1.4,2.9,3,5.8,4.8,8.5l-13.9,17.4
			c-0.9,1.1-1.3,2.5-1.1,3.9c0.2,1.4,0.9,2.7,2.1,3.5l11.3,8.2l-59,72.6c-1.8,2.2-1.5,5.5,0.8,7.3c0,0,0,0,0,0l26,20.8
			c2.2,1.8,5.5,1.4,7.3-0.8l60.3-74.2l10.5,7.6c2.2,1.6,5.4,1.2,7.1-1l16.2-20.3c42.7,7.4,85.2-14.3,104.3-53.3l5.7,6.3
			c1,1.1,2.4,1.7,3.8,1.7c0.4,0,0.7,0,1.1-0.1c3.8-0.8,7.5-2,11-3.7c1.7-0.8,2.8-2.4,3-4.2l0.6-7c0.6-0.4,1.1-0.8,1.7-1.2l6.5,1.5
			c1.8,0.4,3.8-0.2,5-1.6c2.6-2.9,4.9-6.1,6.8-9.5c0.9-1.6,0.9-3.6,0-5.1l-3.5-6c0.2-0.7,0.5-1.4,0.7-2.2l6.2-2.7
			c1.9-0.8,3.1-2.7,3.1-4.8v-10.6C447.3,159.3,446.1,157.4,444.2,156.6z M192.3,341.1l-17.9-14.3l56.1-69l18.5,13.5L192.3,341.1z
			 M270.1,273.8l-10.5-7.6l-0.6-0.4l-37.7-27.4l8.6-10.7c12.8,16.2,30.3,28,50.1,33.8L270.1,273.8z M307.4,254.9
			c-48.8,0-88.3-39.5-88.3-88.3c0.1-48.7,39.6-88.2,88.3-88.3c48.8,0,88.3,39.5,88.3,88.3S356.1,254.9,307.4,254.9z M436.9,168.5
			l-5.4,2.4c-1.5,0.7-2.6,2-3,3.6c-0.4,1.9-1,3.8-1.7,5.6c-0.6,1.5-0.5,3.2,0.3,4.6l3.2,5.5c-0.6,1-1.3,1.9-2,2.8l-5.9-1.4
			c-1.6-0.4-3.3,0.1-4.6,1.2c-1.4,1.3-3,2.4-4.6,3.4c-1.4,0.9-2.3,2.3-2.4,3.9l-0.6,6.4c-1.1,0.4-2.1,0.8-3.2,1.1l-6.8-7.5
			c8-21.6,8-45.4,0-67.1l6.8-7.4c1.1,0.3,2.1,0.7,3.2,1.1l0.6,6.4c0.2,1.6,1.1,3.1,2.4,3.9c1.6,1,3.2,2.1,4.6,3.4
			c1.3,1.1,3,1.5,4.6,1.2l5.9-1.4c0.7,0.9,1.4,1.9,2,2.8l-3.2,5.5c-0.8,1.4-0.9,3.1-0.3,4.6c0.7,1.8,1.3,3.7,1.7,5.6
			c0.4,1.6,1.5,2.9,3,3.6l5.4,2.4L436.9,168.5L436.9,168.5z"/>
	</g>
</g>
</svg>
