<?xml version="1.0" encoding="utf-8"?>
<!-- Generator: Adobe Illustrator 25.4.1, SVG Export Plug-In . SVG Version: 6.00 Build 0)  -->
<svg version="1.1" id="Layer_3" xmlns="http://www.w3.org/2000/svg" xmlns:xlink="http://www.w3.org/1999/xlink" x="0px" y="0px"
	 viewBox="0 0 512 512" style="enable-background:new 0 0 512 512;" xml:space="preserve">
<style type="text/css">
	.st0{fill:url(#SVGID_1_);}
	.st1{fill:url(#SVGID_00000037662479232144606830000002910176629052393109_);}
	.st2{fill:#FFFFFF;}
	.st3{fill:#7E1AFF;}
	.st4{fill:#D5D9FA;}
	.st5{fill:#EDF1FF;}
	.st6{fill:#E2E4F9;}
	.st7{fill:#FEC931;}
	.st8{fill:#534991;}
</style>
<linearGradient id="SVGID_1_" gradientUnits="userSpaceOnUse" x1="554.2172" y1="893.5899" x2="-366.8738" y2="689.5698" gradientTransform="matrix(-1 0 0 1 551.4794 -568)">
	<stop  offset="0" style="stop-color:#D2DEFF;stop-opacity:0"/>
	<stop  offset="1" style="stop-color:#B7C5FF"/>
</linearGradient>
<path class="st0" d="M83.6,171.9c-55.9,55.9-31.8,170.6,53.8,256.2c85.6,85.6,200.3,109.7,256.2,53.8c31.9-31.9,37.7-82.9,21-136.8
	c-11.8-37.9-5.9-79.2,17-111.7c18-25.6,28.1-57.1,26.9-91C455.5,63.2,389.6-0.1,310.3,0c-60.6,0-112.6,36.4-135.6,88.6
	c-12.4,28.2-34.4,50.9-62.4,63.6C101.6,157,92,163.5,83.6,171.9L83.6,171.9z"/>
<linearGradient id="SVGID_00000000200340646862617120000015651346548534597760_" gradientUnits="userSpaceOnUse" x1="554.2172" y1="893.5899" x2="-366.8738" y2="689.5698" gradientTransform="matrix(-1 0 0 1 551.4794 -568)">
	<stop  offset="0" style="stop-color:#D2DEFF;stop-opacity:0"/>
	<stop  offset="1" style="stop-color:#B7C5FF"/>
</linearGradient>
<path style="fill:url(#SVGID_00000000200340646862617120000015651346548534597760_);" d="M83.6,171.9
	c-55.9,55.9-31.8,170.6,53.8,256.2c85.6,85.6,200.3,109.7,256.2,53.8c31.9-31.9,37.7-82.9,21-136.8c-11.8-37.9-5.9-79.2,17-111.7
	c18-25.6,28.1-57.1,26.9-91C455.5,63.2,389.6-0.1,310.3,0c-60.6,0-112.6,36.4-135.6,88.6c-12.4,28.2-34.4,50.9-62.4,63.6
	C101.6,157,92,163.5,83.6,171.9L83.6,171.9z"/>
<g>
	<g id="borderComputer">
		<g>
			<path class="st2" d="M174.4,197.1l67.5-115.3c2.5-4.3,7.2-7,12.2-7c2.5,0,4.9,0.7,7.1,1.9l191.5,112.2c3.2,1.9,5.6,4.9,6.5,8.6
				c1,3.6,0.4,7.4-1.5,10.7l-67.5,115.3L174.4,197.1z"/>
			<path class="st3" d="M254.1,77.8c2,0,3.9,0.5,5.6,1.5l191.5,112.2c5.3,3.1,7,9.9,4,15.2l-66,112.7L178.5,196l66-112.7
				C246.5,79.9,250.1,77.8,254.1,77.8 M254.1,71.8c-5.9,0-11.6,3-14.7,8.4l-69,117.9l221,129.4l69-117.9c4.8-8.1,2-18.6-6.1-23.4
				L262.7,74.2C260,72.6,257,71.8,254.1,71.8L254.1,71.8z"/>
		</g>
		<g>
			<path class="st4" d="M364.2,352.8c-2.3,0-4.5-0.6-6.4-1.7L166.2,238.9c-6.7-3.9-8.5-13.3-4.1-20.9l12.9-22l215.8,126.4l-12.9,22
				C374.9,349.6,369.6,352.8,364.2,352.8C364.2,352.8,364.2,352.8,364.2,352.8z"/>
			<path class="st3" d="M176.1,200.1l210.6,123.4l-11.4,19.4c-2.5,4.3-6.8,6.9-11.2,6.9c-1.8,0-3.4-0.4-4.9-1.3L167.7,236.3
				c-2.4-1.4-4.1-3.9-4.8-6.9c-0.7-3.3,0-6.8,1.8-9.9L176.1,200.1 M174,191.8l-14.4,24.6c-5.3,9.1-3,20.3,5.1,25l191.5,112.2
				c2.5,1.4,5.2,2.1,7.9,2.1c6.3,0,12.7-3.6,16.4-9.9l14.4-24.6L174,191.8L174,191.8z"/>
		</g>
		<g>
			<path class="st4" d="M179.1,315.7l5-8.5c1.8-3,5-4.9,8.5-4.9c1.7,0,3.4,0.5,4.9,1.3l88.4,51.8c2.3,1.3,3.9,3.4,4.5,6
				c0.7,2.5,0.3,5.2-1,7.4l-5,8.5L179.1,315.7z"/>
			<path class="st3" d="M192.5,305.4L192.5,305.4c1.2,0,2.4,0.3,3.4,0.9l88.4,51.8c1.6,0.9,2.7,2.4,3.1,4.2s0.2,3.6-0.7,5.2
				l-3.4,5.9l-100.1-58.6l3.4-5.9C187.9,306.7,190.1,305.4,192.5,305.4 M192.5,299.4c-4.4,0-8.7,2.3-11.1,6.3l-6.5,11l110.5,64.7
				l6.5-11c3.6-6.1,1.5-13.9-4.6-17.5L199,301.2C197,300,194.7,299.4,192.5,299.4L192.5,299.4z"/>
		</g>
		<g>
			
				<rect x="231.9" y="276.9" transform="matrix(0.5054 -0.8629 0.8629 0.5054 -144.9328 371.7768)" class="st5" width="39.8" height="70.8"/>
			<path class="st3" d="M232.4,281.3l55.9,32.8l-17.1,29.2l-55.9-32.8L232.4,281.3 M230.2,273.1l-23.2,39.5l66.3,38.8l23.2-39.5
				L230.2,273.1L230.2,273.1z"/>
		</g>
	</g>
	<g id="right_window">
		<path class="st6" d="M363.3,172.7l73.7,43.1l-51.8,88.4l-73.7-43.1L363.3,172.7z"/>
		<path class="st2" d="M369.4,196l44.2,25.9l-17.3,29.5l-44.2-25.9L369.4,196z"/>
		<g>
			<path class="st2" d="M342,234.4l51.6,30.2l-4.3,7.4l-51.6-30.2L342,234.4z"/>
		</g>
		<g>
			<path class="st2" d="M333.3,249.1l51.6,30.2l-4.3,7.4L329,256.5L333.3,249.1z"/>
		</g>
		<circle class="st7" cx="366.3" cy="184.3" r="25.6"/>
		<g>
			<path class="st2" d="M353.6,183.3l23.4-6.1l2.2,8.3l-23.4,6.1L353.6,183.3z"/>
		</g>
		<g>
			<path class="st2" d="M359.1,173.7l8.3-2.2l6.1,23.4l-8.3,2.2L359.1,173.7z"/>
		</g>
	</g>
	<g id="left_windows">
		<path class="st6" d="M260.2,112.3l73.7,43.1L282,243.8l-73.7-43.1L260.2,112.3z"/>
		<path class="st2" d="M266.3,135.6l44.2,25.9L293.2,191L249,165.1L266.3,135.6z"/>
		<circle class="st8" cx="263.2" cy="123.9" r="25.6"/>
		<g>
			<path class="st2" d="M253,132.8c-0.9-0.6-1.7-1.5-2-2.6l-3.1-11.7l8.3-2.2l2,7.6l19.2-5l2.2,8.3l-23.4,6.1
				C255.1,133.6,254,133.4,253,132.8z"/>
		</g>
		<g>
			<path class="st2" d="M238.8,174l51.6,30.2l-4.3,7.4l-51.6-30.2L238.8,174z"/>
		</g>
		<g>
			<path class="st2" d="M230.2,188.7l51.6,30.2l-4.3,7.4l-51.6-30.2L230.2,188.7z"/>
		</g>
	</g>
	<g id="btn_right">
		<g>
			<path class="st2" d="M362.1,335.2l7.4,4.3l-4.3,7.4l-7.4-4.3L362.1,335.2z"/>
		</g>
		<g>
			<path class="st2" d="M347.3,326.6l7.4,4.3l-4.3,7.4l-7.4-4.3L347.3,326.6z"/>
		</g>
	</g>
</g>
</svg>
