<?xml version="1.0" encoding="utf-8"?>
<!-- Generator: Adobe Illustrator 25.4.1, SVG Export Plug-In . SVG Version: 6.00 Build 0)  -->
<svg version="1.1" id="Layer_3" xmlns="http://www.w3.org/2000/svg" xmlns:xlink="http://www.w3.org/1999/xlink" x="0px" y="0px"
	 viewBox="0 0 512 512" style="enable-background:new 0 0 512 512;" xml:space="preserve">
<style type="text/css">
	.st0{fill:url(#SVGID_1_);}
	.st1{fill:url(#SVGID_00000093159796463445525850000017041817744765067709_);}
	.st2{fill:#FFFFFF;}
	.st3{fill:#7E1AFF;}
	.st4{fill:#D5D9FA;}
	.st5{fill:#EDF1FF;}
	.st6{fill:#E2E4F9;}
	.st7{fill:#FEC931;}
	.st8{fill:#534991;}
	.st9{fill:#A6A0F9;}
</style>
<linearGradient id="SVGID_1_" gradientUnits="userSpaceOnUse" x1="554.2172" y1="893.5899" x2="-366.8738" y2="689.5698" gradientTransform="matrix(-1 0 0 1 551.4794 -568)">
	<stop  offset="0" style="stop-color:#D2DEFF;stop-opacity:0"/>
	<stop  offset="1" style="stop-color:#B7C5FF"/>
</linearGradient>
<path class="st0" d="M83.6,171.9c-55.9,55.9-31.8,170.6,53.8,256.2c85.6,85.6,200.3,109.7,256.2,53.8c31.9-31.9,37.7-82.9,21-136.8
	c-11.8-37.9-5.9-79.2,17-111.7c18-25.6,28.1-57.1,26.9-91C455.5,63.2,389.6-0.1,310.3,0c-60.6,0-112.6,36.4-135.6,88.6
	c-12.4,28.2-34.4,50.9-62.4,63.6C101.6,157,92,163.5,83.6,171.9L83.6,171.9z"/>
<linearGradient id="SVGID_00000104699102333974804280000004668269537637473421_" gradientUnits="userSpaceOnUse" x1="554.2172" y1="893.5899" x2="-366.8738" y2="689.5698" gradientTransform="matrix(-1 0 0 1 551.4794 -568)">
	<stop  offset="0" style="stop-color:#D2DEFF;stop-opacity:0"/>
	<stop  offset="1" style="stop-color:#B7C5FF"/>
</linearGradient>
<path style="fill:url(#SVGID_00000104699102333974804280000004668269537637473421_);" d="M83.6,171.9
	c-55.9,55.9-31.8,170.6,53.8,256.2c85.6,85.6,200.3,109.7,256.2,53.8c31.9-31.9,37.7-82.9,21-136.8c-11.8-37.9-5.9-79.2,17-111.7
	c18-25.6,28.1-57.1,26.9-91C455.5,63.2,389.6-0.1,310.3,0c-60.6,0-112.6,36.4-135.6,88.6c-12.4,28.2-34.4,50.9-62.4,63.6
	C101.6,157,92,163.5,83.6,171.9L83.6,171.9z"/>
<g>
	<g id="borderComputer">
		<g>
			<path class="st2" d="M70.4,165.1c-2-7.5,2.6-15.2,10.1-17.2l214.8-56.1c1.2-0.3,2.4-0.5,3.6-0.5c6.4,0,12,4.3,13.6,10.5
				l33.8,129.3l-242,63.2L70.4,165.1z"/>
			<path class="st3" d="M298.7,94.4c5,0,9.4,3.4,10.7,8.3l33,126.3l-236.2,61.7l-33-126.3c-0.7-2.9-0.3-5.8,1.2-8.4
				c1.5-2.6,3.9-4.4,6.8-5.1l214.8-56.1C296.9,94.5,297.8,94.4,298.7,94.4 M298.7,88.4c-1.4,0-2.9,0.2-4.3,0.6L79.7,145
				c-9.1,2.4-14.6,11.7-12.2,20.8L102,298l247.8-64.8l-34.5-132.2C313.2,93.4,306.3,88.4,298.7,88.4L298.7,88.4z"/>
		</g>
		<g>
			<path class="st4" d="M124.8,330.2c-6.5,0-12.6-5.2-14.5-12.3l-6.5-24.7l242-63.2l6.5,24.7c2.2,8.5-2.1,17.1-9.6,19.1l-214.8,56.1
				C126.9,330,125.8,330.2,124.8,330.2C124.8,330.2,124.8,330.2,124.8,330.2z"/>
			<path class="st3" d="M343.7,233.5l5.7,21.8c0.9,3.5,0.6,7-1,10c-1.4,2.8-3.7,4.7-6.5,5.4l-214.8,56.1c-0.8,0.2-1.6,0.3-2.4,0.3
				c-5.2,0-10.1-4.2-11.6-10.1l-5.7-21.8L343.7,233.5 M347.9,226.2L100.2,291l7.2,27.6c2.3,8.7,9.6,14.6,17.4,14.6
				c1.3,0,2.6-0.2,3.9-0.5l214.8-56.1c9.1-2.4,14.4-12.6,11.7-22.7L347.9,226.2L347.9,226.2z"/>
		</g>
		<g>
			<path class="st4" d="M188.9,365.4c-1.4-5.2,1.8-10.6,7-12l99.1-25.9c0.8-0.2,1.7-0.3,2.5-0.3c4.5,0,8.4,3,9.5,7.3l2.5,9.5
				l-118.1,30.9L188.9,365.4z"/>
			<path class="st3" d="M297.5,330.3c3.1,0,5.8,2.1,6.6,5.1l1.7,6.6l-112.3,29.3l-1.7-6.6c-0.9-3.6,1.2-7.4,4.9-8.3l99.1-25.9
				C296.3,330.3,296.9,330.3,297.5,330.3 M297.5,324.3c-1.1,0-2.2,0.1-3.2,0.4l-99.1,25.9c-6.8,1.8-10.9,8.8-9.2,15.6l3.2,12.4
				l123.9-32.4l-3.2-12.4C308.4,328.1,303.2,324.3,297.5,324.3L297.5,324.3z"/>
		</g>
		<g>
			
				<rect x="205" y="301.2" transform="matrix(0.9675 -0.2528 0.2528 0.9675 -73.374 71.2053)" class="st5" width="70.8" height="39.8"/>
			<path class="st3" d="M267.5,296.6l8.6,32.7l-62.7,16.4l-8.6-32.7L267.5,296.6 M271.8,289.2l-74.3,19.4L209,353l74.3-19.4
				L271.8,289.2L271.8,289.2z"/>
		</g>
	</g>
	<g id="right_window">
		<path class="st6" d="M220.5,143.5L303,122l25.9,99.1l-82.6,21.6L220.5,143.5z"/>
		<path class="st2" d="M241.3,155.7l49.6-13l8.6,33l-49.6,13L241.3,155.7z"/>
		<g>
			<path class="st2" d="M249,202.3l57.8-15.1l2.2,8.3l-57.8,15.1L249,202.3z"/>
		</g>
		<g>
			<path class="st2" d="M253.3,218.8l57.8-15.1l2.2,8.3L255.5,227L253.3,218.8z"/>
		</g>
		<circle class="st7" cx="230.9" cy="149.6" r="25.6"/>
		<g>
			<path class="st2" d="M221.1,157.9l12.2-20.8l7.4,4.3l-12.2,20.8L221.1,157.9z"/>
		</g>
		<g>
			<path class="st2" d="M218.3,147.2l4.3-7.4l20.8,12.2l-4.3,7.4L218.3,147.2z"/>
		</g>
	</g>
	<g id="left_windows">
		<path class="st6" d="M104.8,173.8l82.6-21.6l25.9,99.1l-82.6,21.6L104.8,173.8z"/>
		<path class="st2" d="M125.7,186l49.6-13l8.6,33l-49.6,13L125.7,186z"/>
		<circle class="st8" cx="115.2" cy="179.9" r="25.6"/>
		<g>
			<path class="st2" d="M114.3,193.3c-1.1,0.3-2.2,0.1-3.2-0.4l-10.4-6.1l4.3-7.4l6.7,3.9l10-17.2l7.4,4.3l-12.2,20.8
				C116.4,192.4,115.4,193.1,114.3,193.3z"/>
		</g>
		<g>
			<path class="st2" d="M133.4,232.5l57.8-15.1l2.2,8.3l-57.8,15.1L133.4,232.5z"/>
		</g>
		<g>
			<path class="st2" d="M137.7,249l57.8-15.1l2.2,8.3l-57.8,15.1L137.7,249z"/>
		</g>
	</g>
	<g id="btn_right">
		<g>
			<path class="st2" d="M334.5,259.3l8.3-2.2l2.2,8.3l-8.3,2.2L334.5,259.3z"/>
		</g>
		<g>
			<path class="st2" d="M318,263.6l8.3-2.2l2.2,8.3l-8.3,2.2L318,263.6z"/>
		</g>
	</g>
</g>
<g>
	<path class="st7" d="M432.3,202c-7.3,0-13.2-5.9-13.2-13.2c0-7.3,5.9-13.2,13.2-13.2c7.3,0,13.2,5.9,13.2,13.2
		C445.5,196.1,439.6,202,432.3,202z M432.3,185.6c-1.8,0-3.2,1.4-3.2,3.2c0,1.8,1.5,3.2,3.2,3.2s3.2-1.4,3.2-3.2
		S434.1,185.6,432.3,185.6z"/>
</g>
<g>
	<path class="st9" d="M402.2,483.3c-7.3,0-13.2-5.9-13.2-13.2c0-7.3,5.9-13.2,13.2-13.2c7.3,0,13.2,5.9,13.2,13.2
		S409.5,483.3,402.2,483.3z M402.2,466.9c-1.8,0-3.2,1.5-3.2,3.2s1.5,3.2,3.2,3.2s3.2-1.5,3.2-3.2S404,466.9,402.2,466.9z"/>
</g>
<g>
	<path class="st9" d="M355.8,48.8c-7.3,0-13.2-5.9-13.2-13.2s5.9-13.2,13.2-13.2c7.3,0,13.2,5.9,13.2,13.2S363.1,48.8,355.8,48.8z
		 M355.8,32.3c-1.8,0-3.2,1.5-3.2,3.2s1.5,3.2,3.2,3.2s3.2-1.5,3.2-3.2S357.6,32.3,355.8,32.3z"/>
</g>
<g>
	<path class="st3" d="M100.2,111.2c-1.3,0-2.6-0.5-3.5-1.5L85.3,98.4c-2-1.9-2-5.1,0-7.1l11.3-11.3c2-1.9,5.1-1.9,7.1,0L115,91.4
		c0.9,0.9,1.5,2.2,1.5,3.5s-0.5,2.6-1.5,3.5l-11.3,11.3C102.7,110.7,101.4,111.2,100.2,111.2z M95.9,94.9l4.2,4.2l4.2-4.2l-4.2-4.2
		L95.9,94.9z"/>
</g>
<g>
	<path class="st7" d="M81.6,356.3c-1.3,0-2.6-0.5-3.5-1.5l-11.3-11.3c-2-2-2-5.1,0-7.1l11.3-11.3c1.9-2,5.1-2,7.1,0l11.3,11.3
		c0.9,0.9,1.5,2.2,1.5,3.5s-0.5,2.6-1.5,3.5l-11.3,11.3C84.2,355.7,82.9,356.3,81.6,356.3z M77.4,340l4.2,4.2l4.2-4.2l-4.2-4.2
		L77.4,340z"/>
</g>
</svg>
