<?xml version="1.0" encoding="utf-8"?>
<!-- Generator: Adobe Illustrator 25.4.1, SVG Export Plug-In . SVG Version: 6.00 Build 0)  -->
<svg version="1.1" id="Calque_1" xmlns="http://www.w3.org/2000/svg" xmlns:xlink="http://www.w3.org/1999/xlink" x="0px" y="0px"
	 viewBox="0 0 200 200" style="enable-background:new 0 0 200 200;" xml:space="preserve">
<style type="text/css">
	.st0{fill:#010202;}
	.st1{fill:#231E21;}
</style>
<g>
	<path class="st0" d="M197.56,164.71c-1.35,0-2.44-1.07-2.44-2.4s1.09-2.4,2.44-2.4c1.35,0,2.44,1.07,2.44,2.4
		S198.91,164.71,197.56,164.71"/>
	<path class="st0" d="M181.3,164.71c-1.35,0-2.44-1.07-2.44-2.4s1.09-2.4,2.44-2.4c1.35,0,2.44,1.07,2.44,2.4
		S182.65,164.71,181.3,164.71"/>
	<path class="st0" d="M197.56,180.71c-1.35,0-2.44-1.07-2.44-2.4s1.09-2.4,2.44-2.4c1.35,0,2.44,1.07,2.44,2.4
		S198.91,180.71,197.56,180.71"/>
	<path class="st0" d="M181.3,180.71c-1.35,0-2.44-1.07-2.44-2.4s1.09-2.4,2.44-2.4c1.35,0,2.44,1.07,2.44,2.4
		S182.65,180.71,181.3,180.71"/>
	<path class="st0" d="M173.17,172.71c-1.35,0-2.44-1.07-2.44-2.4c0-1.33,1.09-2.4,2.44-2.4c1.35,0,2.44,1.07,2.44,2.4
		C175.61,171.64,174.52,172.71,173.17,172.71"/>
	<path class="st0" d="M189.43,172.71c-1.35,0-2.44-1.07-2.44-2.4c0-1.33,1.09-2.4,2.44-2.4c1.35,0,2.44,1.07,2.44,2.4
		C191.87,171.64,190.78,172.71,189.43,172.71"/>
	<path class="st0" d="M189.43,188.7c-1.35,0-2.44-1.07-2.44-2.4s1.09-2.4,2.44-2.4c1.35,0,2.44,1.07,2.44,2.4
		S190.78,188.7,189.43,188.7"/>
	<path class="st0" d="M197.56,191.9c1.35,0,2.44,1.08,2.44,2.4c0,1.33-1.09,2.4-2.44,2.4c-1.35,0-2.44-1.07-2.44-2.4
		C195.12,192.97,196.22,191.9,197.56,191.9"/>
	<path class="st0" d="M197.56,132.73c-1.35,0-2.44-1.07-2.44-2.4c0-1.33,1.09-2.4,2.44-2.4c1.35,0,2.44,1.07,2.44,2.4
		C200,131.66,198.91,132.73,197.56,132.73"/>
	<path class="st0" d="M181.3,132.73c-1.35,0-2.44-1.07-2.44-2.4c0-1.33,1.09-2.4,2.44-2.4c1.35,0,2.44,1.07,2.44,2.4
		C183.74,131.66,182.65,132.73,181.3,132.73"/>
	<path class="st0" d="M197.56,148.72c-1.35,0-2.44-1.07-2.44-2.4s1.09-2.4,2.44-2.4c1.35,0,2.44,1.07,2.44,2.4
		S198.91,148.72,197.56,148.72"/>
	<path class="st0" d="M181.3,148.72c-1.35,0-2.44-1.07-2.44-2.4s1.09-2.4,2.44-2.4c1.35,0,2.44,1.07,2.44,2.4
		S182.65,148.72,181.3,148.72"/>
	<path class="st0" d="M173.17,140.73c-1.35,0-2.44-1.07-2.44-2.4c0-1.33,1.09-2.4,2.44-2.4c1.35,0,2.44,1.08,2.44,2.4
		C175.61,139.65,174.52,140.73,173.17,140.73"/>
	<path class="st0" d="M189.43,140.73c-1.35,0-2.44-1.07-2.44-2.4c0-1.33,1.09-2.4,2.44-2.4c1.35,0,2.44,1.08,2.44,2.4
		C191.87,139.65,190.78,140.73,189.43,140.73"/>
	<path class="st0" d="M173.17,156.72c-1.35,0-2.44-1.08-2.44-2.4c0-1.33,1.09-2.4,2.44-2.4c1.35,0,2.44,1.07,2.44,2.4
		C175.61,155.64,174.52,156.72,173.17,156.72"/>
	<path class="st0" d="M189.43,156.72c-1.35,0-2.44-1.08-2.44-2.4c0-1.33,1.09-2.4,2.44-2.4c1.35,0,2.44,1.07,2.44,2.4
		C191.87,155.64,190.78,156.72,189.43,156.72"/>
	<path class="st0" d="M197.56,100.75c-1.35,0-2.44-1.08-2.44-2.4c0-1.33,1.09-2.4,2.44-2.4c1.35,0,2.44,1.07,2.44,2.4
		C200,99.67,198.91,100.75,197.56,100.75"/>
	<path class="st0" d="M181.3,100.75c-1.35,0-2.44-1.08-2.44-2.4c0-1.33,1.09-2.4,2.44-2.4c1.35,0,2.44,1.07,2.44,2.4
		C183.74,99.67,182.65,100.75,181.3,100.75"/>
	<path class="st0" d="M197.56,116.74c-1.35,0-2.44-1.08-2.44-2.4c0-1.33,1.09-2.4,2.44-2.4c1.35,0,2.44,1.07,2.44,2.4
		C200,115.66,198.91,116.74,197.56,116.74"/>
	<path class="st0" d="M181.3,116.74c-1.35,0-2.44-1.08-2.44-2.4c0-1.33,1.09-2.4,2.44-2.4c1.35,0,2.44,1.07,2.44,2.4
		C183.74,115.66,182.65,116.74,181.3,116.74"/>
	<path class="st0" d="M173.17,108.74c-1.35,0-2.44-1.07-2.44-2.4c0-1.33,1.09-2.4,2.44-2.4c1.35,0,2.44,1.08,2.44,2.4
		C175.61,107.67,174.52,108.74,173.17,108.74"/>
	<path class="st0" d="M189.43,108.74c-1.35,0-2.44-1.07-2.44-2.4c0-1.33,1.09-2.4,2.44-2.4c1.35,0,2.44,1.08,2.44,2.4
		C191.87,107.67,190.78,108.74,189.43,108.74"/>
	<path class="st0" d="M173.17,124.73c-1.35,0-2.44-1.07-2.44-2.4c0-1.32,1.09-2.4,2.44-2.4c1.35,0,2.44,1.08,2.44,2.4
		C175.61,123.66,174.52,124.73,173.17,124.73"/>
	<path class="st0" d="M189.43,124.73c-1.35,0-2.44-1.07-2.44-2.4c0-1.32,1.09-2.4,2.44-2.4c1.35,0,2.44,1.08,2.44,2.4
		C191.87,123.66,190.78,124.73,189.43,124.73"/>
	<path class="st0" d="M197.56,68.76c-1.35,0-2.44-1.07-2.44-2.4s1.09-2.4,2.44-2.4c1.35,0,2.44,1.07,2.44,2.4
		S198.91,68.76,197.56,68.76"/>
	<path class="st0" d="M181.3,68.76c-1.35,0-2.44-1.07-2.44-2.4s1.09-2.4,2.44-2.4c1.35,0,2.44,1.07,2.44,2.4
		S182.65,68.76,181.3,68.76"/>
	<path class="st0" d="M197.56,84.76c-1.35,0-2.44-1.07-2.44-2.4c0-1.33,1.09-2.4,2.44-2.4c1.35,0,2.44,1.07,2.44,2.4
		C200,83.68,198.91,84.76,197.56,84.76"/>
	<path class="st0" d="M181.3,84.76c-1.35,0-2.44-1.07-2.44-2.4c0-1.33,1.09-2.4,2.44-2.4c1.35,0,2.44,1.07,2.44,2.4
		C183.74,83.68,182.65,84.76,181.3,84.76"/>
	<path class="st0" d="M173.17,76.76c-1.35,0-2.44-1.07-2.44-2.4c0-1.33,1.09-2.4,2.44-2.4c1.35,0,2.44,1.07,2.44,2.4
		C175.61,75.69,174.52,76.76,173.17,76.76"/>
	<path class="st0" d="M189.43,76.76c-1.35,0-2.44-1.07-2.44-2.4c0-1.33,1.09-2.4,2.44-2.4c1.35,0,2.44,1.07,2.44,2.4
		C191.87,75.69,190.78,76.76,189.43,76.76"/>
	<path class="st0" d="M173.17,92.75c-1.35,0-2.44-1.07-2.44-2.4c0-1.32,1.09-2.4,2.44-2.4c1.35,0,2.44,1.08,2.44,2.4
		C175.61,91.68,174.52,92.75,173.17,92.75"/>
	<path class="st0" d="M189.43,92.75c-1.35,0-2.44-1.07-2.44-2.4c0-1.32,1.09-2.4,2.44-2.4c1.35,0,2.44,1.08,2.44,2.4
		C191.87,91.68,190.78,92.75,189.43,92.75"/>
	<path class="st0" d="M197.56,36.78c-1.35,0-2.44-1.08-2.44-2.4c0-1.33,1.09-2.4,2.44-2.4c1.35,0,2.44,1.07,2.44,2.4
		C200,35.71,198.91,36.78,197.56,36.78"/>
	<path class="st0" d="M181.3,36.78c-1.35,0-2.44-1.08-2.44-2.4c0-1.33,1.09-2.4,2.44-2.4c1.35,0,2.44,1.07,2.44,2.4
		C183.74,35.71,182.65,36.78,181.3,36.78"/>
	<path class="st0" d="M197.56,52.77c-1.35,0-2.44-1.07-2.44-2.4c0-1.33,1.09-2.4,2.44-2.4c1.35,0,2.44,1.07,2.44,2.4
		C200,51.7,198.91,52.77,197.56,52.77"/>
	<path class="st0" d="M181.3,52.77c-1.35,0-2.44-1.07-2.44-2.4c0-1.33,1.09-2.4,2.44-2.4c1.35,0,2.44,1.07,2.44,2.4
		C183.74,51.7,182.65,52.77,181.3,52.77"/>
	<path class="st0" d="M173.17,44.78c-1.35,0-2.44-1.07-2.44-2.4c0-1.33,1.09-2.4,2.44-2.4c1.35,0,2.44,1.07,2.44,2.4
		C175.61,43.7,174.52,44.78,173.17,44.78"/>
	<path class="st0" d="M189.43,44.78c-1.35,0-2.44-1.07-2.44-2.4c0-1.33,1.09-2.4,2.44-2.4c1.35,0,2.44,1.07,2.44,2.4
		C191.87,43.7,190.78,44.78,189.43,44.78"/>
	<path class="st0" d="M173.17,60.77c-1.35,0-2.44-1.07-2.44-2.4c0-1.33,1.09-2.4,2.44-2.4c1.35,0,2.44,1.07,2.44,2.4
		C175.61,59.69,174.52,60.77,173.17,60.77"/>
	<path class="st0" d="M189.43,60.77c-1.35,0-2.44-1.07-2.44-2.4c0-1.33,1.09-2.4,2.44-2.4c1.35,0,2.44,1.07,2.44,2.4
		C191.87,59.69,190.78,60.77,189.43,60.77"/>
	<path class="st0" d="M197.56,4.8c-1.35,0-2.44-1.07-2.44-2.4c0-1.33,1.09-2.4,2.44-2.4c1.35,0,2.44,1.07,2.44,2.4
		C200,3.72,198.91,4.8,197.56,4.8"/>
	<path class="st0" d="M181.3,4.8c-1.35,0-2.44-1.07-2.44-2.4c0-1.33,1.09-2.4,2.44-2.4c1.35,0,2.44,1.07,2.44,2.4
		C183.74,3.72,182.65,4.8,181.3,4.8"/>
	<path class="st0" d="M197.56,20.79c-1.35,0-2.44-1.07-2.44-2.4c0-1.33,1.09-2.4,2.44-2.4c1.35,0,2.44,1.07,2.44,2.4
		C200,19.72,198.91,20.79,197.56,20.79"/>
	<path class="st0" d="M181.3,20.79c-1.35,0-2.44-1.07-2.44-2.4c0-1.33,1.09-2.4,2.44-2.4c1.35,0,2.44,1.07,2.44,2.4
		C183.74,19.72,182.65,20.79,181.3,20.79"/>
	<path class="st0" d="M173.17,12.79c-1.35,0-2.44-1.07-2.44-2.4c0-1.33,1.09-2.4,2.44-2.4c1.35,0,2.44,1.08,2.44,2.4
		C175.61,11.72,174.52,12.79,173.17,12.79"/>
	<path class="st0" d="M189.43,12.79c-1.35,0-2.44-1.07-2.44-2.4c0-1.33,1.09-2.4,2.44-2.4c1.35,0,2.44,1.08,2.44,2.4
		C191.87,11.72,190.78,12.79,189.43,12.79"/>
	<path class="st0" d="M173.17,28.78c-1.35,0-2.44-1.07-2.44-2.4c0-1.32,1.09-2.4,2.44-2.4c1.35,0,2.44,1.08,2.44,2.4
		C175.61,27.71,174.52,28.78,173.17,28.78"/>
	<path class="st0" d="M189.43,28.78c-1.35,0-2.44-1.07-2.44-2.4c0-1.32,1.09-2.4,2.44-2.4c1.35,0,2.44,1.08,2.44,2.4
		C191.87,27.71,190.78,28.78,189.43,28.78"/>
	<path class="st0" d="M165.04,164.71c-0.51,0-0.98-0.15-1.36-0.41c-0.65-0.43-1.08-1.16-1.08-1.99c0-0.83,0.43-1.56,1.08-1.99
		c0.39-0.26,0.86-0.41,1.36-0.41c0.84,0,1.58,0.42,2.02,1.06c0.26,0.38,0.42,0.84,0.42,1.34s-0.15,0.96-0.42,1.34
		C166.62,164.3,165.88,164.71,165.04,164.71"/>
	<path class="st0" d="M165.04,132.73c-0.51,0-0.98-0.15-1.36-0.41c-0.65-0.43-1.08-1.16-1.08-1.99c0-0.83,0.43-1.56,1.08-1.99
		c0.39-0.26,0.86-0.41,1.36-0.41c0.84,0,1.58,0.42,2.02,1.06c0.26,0.38,0.42,0.84,0.42,1.34c0,0.5-0.15,0.96-0.42,1.34
		C166.62,132.31,165.88,132.73,165.04,132.73"/>
	<path class="st0" d="M148.78,132.73c-1.35,0-2.44-1.07-2.44-2.4c0-1.33,1.09-2.4,2.44-2.4c1.35,0,2.44,1.07,2.44,2.4
		C151.22,131.66,150.13,132.73,148.78,132.73"/>
	<path class="st0" d="M165.04,148.72c-0.51,0-0.98-0.15-1.36-0.41c-0.65-0.43-1.08-1.16-1.08-1.99c0-0.83,0.43-1.56,1.08-1.99
		c0.39-0.26,0.86-0.41,1.36-0.41c0.84,0,1.58,0.42,2.02,1.06c0.26,0.38,0.42,0.84,0.42,1.34s-0.15,0.96-0.42,1.34
		C166.62,148.3,165.88,148.72,165.04,148.72"/>
	<path class="st0" d="M148.78,148.72c-1.35,0-2.44-1.07-2.44-2.4s1.09-2.4,2.44-2.4c1.35,0,2.44,1.07,2.44,2.4
		S150.13,148.72,148.78,148.72"/>
	<path class="st0" d="M140.65,140.73c-1.35,0-2.44-1.07-2.44-2.4c0-1.33,1.09-2.4,2.44-2.4c1.35,0,2.44,1.08,2.44,2.4
		C143.09,139.65,142,140.73,140.65,140.73"/>
	<path class="st0" d="M156.91,140.73c-1.35,0-2.44-1.07-2.44-2.4c0-1.33,1.09-2.4,2.44-2.4c1.34,0,2.44,1.08,2.44,2.4
		C159.35,139.65,158.25,140.73,156.91,140.73"/>
	<path class="st0" d="M156.91,156.72c-1.35,0-2.44-1.08-2.44-2.4c0-1.33,1.09-2.4,2.44-2.4c1.34,0,2.44,1.07,2.44,2.4
		C159.35,155.64,158.25,156.72,156.91,156.72"/>
	<path class="st0" d="M165.04,100.75c-0.51,0-0.98-0.15-1.36-0.41c-0.65-0.43-1.08-1.16-1.08-1.99c0-0.83,0.43-1.56,1.08-1.99
		c0.39-0.26,0.86-0.41,1.36-0.41c0.84,0,1.58,0.42,2.02,1.06c0.26,0.38,0.42,0.84,0.42,1.34c0,0.5-0.15,0.96-0.42,1.34
		C166.62,100.33,165.88,100.75,165.04,100.75"/>
	<path class="st0" d="M148.78,100.75c-1.35,0-2.44-1.08-2.44-2.4c0-1.33,1.09-2.4,2.44-2.4c1.35,0,2.44,1.07,2.44,2.4
		C151.22,99.67,150.13,100.75,148.78,100.75"/>
	<path class="st0" d="M165.04,116.74c-0.51,0-0.98-0.15-1.36-0.41c-0.65-0.43-1.08-1.16-1.08-1.99c0-0.83,0.43-1.56,1.08-1.99
		c0.39-0.26,0.86-0.41,1.36-0.41c0.84,0,1.58,0.42,2.02,1.06c0.26,0.38,0.42,0.84,0.42,1.34s-0.15,0.96-0.42,1.34
		C166.62,116.32,165.88,116.74,165.04,116.74"/>
	<path class="st0" d="M148.78,116.74c-1.35,0-2.44-1.08-2.44-2.4c0-1.33,1.09-2.4,2.44-2.4c1.35,0,2.44,1.07,2.44,2.4
		C151.22,115.66,150.13,116.74,148.78,116.74"/>
	<path class="st0" d="M140.65,108.74c-1.35,0-2.44-1.07-2.44-2.4c0-1.33,1.09-2.4,2.44-2.4c1.35,0,2.44,1.08,2.44,2.4
		C143.09,107.67,142,108.74,140.65,108.74"/>
	<path class="st0" d="M156.91,108.74c-1.35,0-2.44-1.07-2.44-2.4c0-1.33,1.09-2.4,2.44-2.4c1.34,0,2.44,1.08,2.44,2.4
		C159.35,107.67,158.25,108.74,156.91,108.74"/>
	<path class="st0" d="M140.65,124.73c-1.35,0-2.44-1.07-2.44-2.4c0-1.32,1.09-2.4,2.44-2.4c1.35,0,2.44,1.08,2.44,2.4
		C143.09,123.66,142,124.73,140.65,124.73"/>
	<path class="st0" d="M156.91,124.73c-1.35,0-2.44-1.07-2.44-2.4c0-1.32,1.09-2.4,2.44-2.4c1.34,0,2.44,1.08,2.44,2.4
		C159.35,123.66,158.25,124.73,156.91,124.73"/>
	<path class="st0" d="M165.04,68.76c-0.51,0-0.98-0.15-1.36-0.41c-0.65-0.43-1.08-1.16-1.08-1.99c0-0.83,0.43-1.56,1.08-1.99
		c0.39-0.26,0.86-0.41,1.36-0.41c0.84,0,1.58,0.42,2.02,1.06c0.26,0.38,0.42,0.84,0.42,1.34s-0.15,0.96-0.42,1.34
		C166.62,68.34,165.88,68.76,165.04,68.76"/>
	<path class="st0" d="M148.78,68.76c-1.35,0-2.44-1.07-2.44-2.4s1.09-2.4,2.44-2.4c1.35,0,2.44,1.07,2.44,2.4
		S150.13,68.76,148.78,68.76"/>
	<path class="st0" d="M165.04,84.76c-0.51,0-0.98-0.15-1.36-0.41c-0.65-0.43-1.08-1.16-1.08-1.99c0-0.83,0.43-1.56,1.08-1.99
		c0.39-0.26,0.86-0.41,1.36-0.41c0.84,0,1.58,0.42,2.02,1.06c0.26,0.38,0.42,0.84,0.42,1.34c0,0.5-0.15,0.96-0.42,1.34
		C166.62,84.34,165.88,84.76,165.04,84.76"/>
	<path class="st0" d="M148.78,84.76c-1.35,0-2.44-1.07-2.44-2.4c0-1.33,1.09-2.4,2.44-2.4c1.35,0,2.44,1.07,2.44,2.4
		C151.22,83.68,150.13,84.76,148.78,84.76"/>
	<path class="st0" d="M140.65,76.76c-1.35,0-2.44-1.07-2.44-2.4c0-1.33,1.09-2.4,2.44-2.4c1.35,0,2.44,1.07,2.44,2.4
		C143.09,75.69,142,76.76,140.65,76.76"/>
	<path class="st0" d="M156.91,76.76c-1.35,0-2.44-1.07-2.44-2.4c0-1.33,1.09-2.4,2.44-2.4c1.34,0,2.44,1.07,2.44,2.4
		C159.35,75.69,158.25,76.76,156.91,76.76"/>
	<path class="st0" d="M140.65,92.75c-1.35,0-2.44-1.07-2.44-2.4c0-1.32,1.09-2.4,2.44-2.4c1.35,0,2.44,1.08,2.44,2.4
		C143.09,91.68,142,92.75,140.65,92.75"/>
	<path class="st0" d="M156.91,92.75c-1.35,0-2.44-1.07-2.44-2.4c0-1.32,1.09-2.4,2.44-2.4c1.34,0,2.44,1.08,2.44,2.4
		C159.35,91.68,158.25,92.75,156.91,92.75"/>
	<path class="st0" d="M165.04,36.78c-0.51,0-0.98-0.15-1.36-0.41c-0.65-0.43-1.08-1.16-1.08-1.99s0.43-1.56,1.08-1.99
		c0.39-0.26,0.86-0.41,1.36-0.41c0.84,0,1.58,0.42,2.02,1.06c0.26,0.38,0.42,0.84,0.42,1.34c0,0.49-0.15,0.96-0.42,1.34
		C166.62,36.36,165.88,36.78,165.04,36.78"/>
	<path class="st0" d="M148.78,36.78c-1.35,0-2.44-1.08-2.44-2.4c0-1.33,1.09-2.4,2.44-2.4c1.35,0,2.44,1.07,2.44,2.4
		C151.22,35.71,150.13,36.78,148.78,36.78"/>
	<path class="st0" d="M165.04,52.77c-0.51,0-0.98-0.15-1.36-0.41c-0.65-0.43-1.08-1.16-1.08-1.99s0.43-1.56,1.08-1.99
		c0.39-0.26,0.86-0.41,1.36-0.41c0.84,0,1.58,0.42,2.02,1.06c0.26,0.38,0.42,0.84,0.42,1.34c0,0.5-0.15,0.96-0.42,1.34
		C166.62,52.35,165.88,52.77,165.04,52.77"/>
	<path class="st0" d="M148.78,52.77c-1.35,0-2.44-1.07-2.44-2.4c0-1.33,1.09-2.4,2.44-2.4c1.35,0,2.44,1.07,2.44,2.4
		C151.22,51.7,150.13,52.77,148.78,52.77"/>
	<path class="st0" d="M140.65,44.78c-1.35,0-2.44-1.07-2.44-2.4c0-1.33,1.09-2.4,2.44-2.4c1.35,0,2.44,1.07,2.44,2.4
		C143.09,43.7,142,44.78,140.65,44.78"/>
	<path class="st0" d="M156.91,44.78c-1.35,0-2.44-1.07-2.44-2.4c0-1.33,1.09-2.4,2.44-2.4c1.34,0,2.44,1.07,2.44,2.4
		C159.35,43.7,158.25,44.78,156.91,44.78"/>
	<path class="st0" d="M140.65,60.77c-1.35,0-2.44-1.07-2.44-2.4c0-1.33,1.09-2.4,2.44-2.4c1.35,0,2.44,1.07,2.44,2.4
		C143.09,59.69,142,60.77,140.65,60.77"/>
	<path class="st0" d="M156.91,60.77c-1.35,0-2.44-1.07-2.44-2.4c0-1.33,1.09-2.4,2.44-2.4c1.34,0,2.44,1.07,2.44,2.4
		C159.35,59.69,158.25,60.77,156.91,60.77"/>
	<path class="st0" d="M165.04,4.8c-0.51,0-0.98-0.15-1.36-0.41c-0.65-0.43-1.08-1.16-1.08-1.99s0.43-1.56,1.08-1.99
		c0.39-0.26,0.86-0.41,1.36-0.41c0.84,0,1.58,0.42,2.02,1.06c0.26,0.38,0.42,0.84,0.42,1.34s-0.15,0.96-0.42,1.34
		C166.62,4.38,165.88,4.8,165.04,4.8"/>
	<path class="st0" d="M148.78,4.8c-1.35,0-2.44-1.07-2.44-2.4c0-1.33,1.09-2.4,2.44-2.4c1.35,0,2.44,1.07,2.44,2.4
		C151.22,3.72,150.13,4.8,148.78,4.8"/>
	<path class="st0" d="M165.04,20.79c-0.51,0-0.98-0.15-1.36-0.41c-0.65-0.43-1.08-1.16-1.08-1.99s0.43-1.56,1.08-1.99
		c0.39-0.26,0.86-0.41,1.36-0.41c0.84,0,1.58,0.42,2.02,1.06c0.26,0.38,0.42,0.84,0.42,1.34s-0.15,0.96-0.42,1.34
		C166.62,20.37,165.88,20.79,165.04,20.79"/>
	<path class="st0" d="M148.78,20.79c-1.35,0-2.44-1.07-2.44-2.4c0-1.33,1.09-2.4,2.44-2.4c1.35,0,2.44,1.07,2.44,2.4
		C151.22,19.72,150.13,20.79,148.78,20.79"/>
	<path class="st0" d="M140.65,12.79c-1.35,0-2.44-1.07-2.44-2.4c0-1.33,1.09-2.4,2.44-2.4c1.35,0,2.44,1.08,2.44,2.4
		C143.09,11.72,142,12.79,140.65,12.79"/>
	<path class="st0" d="M156.91,12.79c-1.35,0-2.44-1.07-2.44-2.4c0-1.33,1.09-2.4,2.44-2.4c1.34,0,2.44,1.08,2.44,2.4
		C159.35,11.72,158.25,12.79,156.91,12.79"/>
	<path class="st0" d="M140.65,28.78c-1.35,0-2.44-1.07-2.44-2.4c0-1.32,1.09-2.4,2.44-2.4c1.35,0,2.44,1.08,2.44,2.4
		C143.09,27.71,142,28.78,140.65,28.78"/>
	<path class="st0" d="M156.91,28.78c-1.35,0-2.44-1.07-2.44-2.4c0-1.32,1.09-2.4,2.44-2.4c1.34,0,2.44,1.08,2.44,2.4
		C159.35,27.71,158.25,28.78,156.91,28.78"/>
	<path class="st0" d="M132.52,132.73c-0.5,0-0.98-0.15-1.36-0.41c-0.65-0.43-1.08-1.16-1.08-1.99c0-0.83,0.43-1.56,1.08-1.99
		c0.39-0.26,0.86-0.41,1.36-0.41c0.67,0,1.28,0.27,1.72,0.7s0.71,1.03,0.71,1.7c0,0.66-0.27,1.26-0.71,1.69
		C133.8,132.46,133.19,132.73,132.52,132.73"/>
	<path class="st0" d="M132.52,100.75c-0.5,0-0.98-0.15-1.36-0.41c-0.65-0.43-1.08-1.16-1.08-1.99c0-0.83,0.43-1.56,1.08-1.99
		c0.39-0.26,0.86-0.41,1.36-0.41c0.67,0,1.28,0.27,1.72,0.7c0.44,0.43,0.71,1.04,0.71,1.7c0,0.66-0.27,1.26-0.71,1.69
		C133.8,100.48,133.19,100.75,132.52,100.75"/>
	<path class="st0" d="M116.26,100.75c-1.35,0-2.44-1.08-2.44-2.4c0-1.33,1.09-2.4,2.44-2.4c1.34,0,2.44,1.07,2.44,2.4
		C118.7,99.67,117.6,100.75,116.26,100.75"/>
	<path class="st0" d="M132.52,116.74c-0.5,0-0.98-0.15-1.36-0.41c-0.65-0.43-1.08-1.16-1.08-1.99c0-0.83,0.43-1.56,1.08-1.99
		c0.39-0.26,0.86-0.41,1.36-0.41c0.67,0,1.28,0.27,1.72,0.7s0.71,1.03,0.71,1.7c0,0.66-0.27,1.26-0.71,1.69
		C133.8,116.47,133.19,116.74,132.52,116.74"/>
	<path class="st0" d="M116.26,116.74c-1.35,0-2.44-1.08-2.44-2.4c0-1.33,1.09-2.4,2.44-2.4c1.34,0,2.44,1.07,2.44,2.4
		C118.7,115.66,117.6,116.74,116.26,116.74"/>
	<path class="st0" d="M108.13,108.74c-1.35,0-2.44-1.07-2.44-2.4c0-1.33,1.09-2.4,2.44-2.4c1.35,0,2.44,1.08,2.44,2.4
		C110.57,107.67,109.48,108.74,108.13,108.74"/>
	<path class="st0" d="M124.39,108.74c-1.35,0-2.44-1.07-2.44-2.4c0-1.33,1.09-2.4,2.44-2.4c1.35,0,2.44,1.08,2.44,2.4
		C126.83,107.67,125.73,108.74,124.39,108.74"/>
	<path class="st0" d="M124.39,124.73c-1.35,0-2.44-1.07-2.44-2.4c0-1.32,1.09-2.4,2.44-2.4c1.35,0,2.44,1.08,2.44,2.4
		C126.83,123.66,125.73,124.73,124.39,124.73"/>
	<path class="st0" d="M132.52,68.76c-0.5,0-0.98-0.15-1.36-0.41c-0.65-0.43-1.08-1.16-1.08-1.99c0-0.83,0.43-1.56,1.08-1.99
		c0.39-0.26,0.86-0.41,1.36-0.41c0.67,0,1.28,0.27,1.72,0.7c0.44,0.44,0.71,1.04,0.71,1.7c0,0.66-0.27,1.26-0.71,1.7
		C133.8,68.5,133.19,68.76,132.52,68.76"/>
	<path class="st0" d="M116.26,68.76c-1.35,0-2.44-1.07-2.44-2.4s1.09-2.4,2.44-2.4c1.34,0,2.44,1.07,2.44,2.4
		S117.6,68.76,116.26,68.76"/>
	<path class="st0" d="M132.52,84.76c-0.5,0-0.98-0.15-1.36-0.41c-0.65-0.43-1.08-1.16-1.08-1.99c0-0.83,0.43-1.56,1.08-1.99
		c0.39-0.26,0.86-0.41,1.36-0.41c0.67,0,1.28,0.27,1.72,0.7c0.44,0.43,0.71,1.03,0.71,1.69c0,0.66-0.27,1.26-0.71,1.7
		S133.19,84.76,132.52,84.76"/>
	<path class="st0" d="M116.26,84.76c-1.35,0-2.44-1.07-2.44-2.4c0-1.33,1.09-2.4,2.44-2.4c1.34,0,2.44,1.07,2.44,2.4
		C118.7,83.68,117.6,84.76,116.26,84.76"/>
	<path class="st0" d="M108.13,76.76c-1.35,0-2.44-1.07-2.44-2.4c0-1.33,1.09-2.4,2.44-2.4c1.35,0,2.44,1.07,2.44,2.4
		C110.57,75.69,109.48,76.76,108.13,76.76"/>
	<path class="st0" d="M124.39,76.76c-1.35,0-2.44-1.07-2.44-2.4c0-1.33,1.09-2.4,2.44-2.4c1.35,0,2.44,1.07,2.44,2.4
		C126.83,75.69,125.73,76.76,124.39,76.76"/>
	<path class="st0" d="M108.13,92.75c-1.35,0-2.44-1.07-2.44-2.4c0-1.32,1.09-2.4,2.44-2.4c1.35,0,2.44,1.08,2.44,2.4
		C110.57,91.68,109.48,92.75,108.13,92.75"/>
	<path class="st0" d="M124.39,92.75c-1.35,0-2.44-1.07-2.44-2.4c0-1.32,1.09-2.4,2.44-2.4c1.35,0,2.44,1.08,2.44,2.4
		C126.83,91.68,125.73,92.75,124.39,92.75"/>
	<path class="st0" d="M132.52,36.78c-0.5,0-0.98-0.15-1.36-0.41c-0.65-0.43-1.08-1.16-1.08-1.99s0.43-1.56,1.08-1.99
		c0.39-0.26,0.86-0.41,1.36-0.41c0.67,0,1.28,0.27,1.72,0.7s0.71,1.03,0.71,1.7c0,0.66-0.27,1.26-0.71,1.69
		C133.8,36.51,133.19,36.78,132.52,36.78"/>
	<path class="st0" d="M116.26,36.78c-1.35,0-2.44-1.08-2.44-2.4c0-1.33,1.09-2.4,2.44-2.4c1.34,0,2.44,1.07,2.44,2.4
		C118.7,35.71,117.6,36.78,116.26,36.78"/>
	<path class="st0" d="M132.52,52.77c-0.5,0-0.98-0.15-1.36-0.41c-0.65-0.43-1.08-1.16-1.08-1.99s0.43-1.56,1.08-1.99
		c0.39-0.26,0.86-0.41,1.36-0.41c0.67,0,1.28,0.27,1.72,0.7c0.44,0.43,0.71,1.03,0.71,1.69c0,0.66-0.27,1.26-0.71,1.7
		C133.8,52.5,133.19,52.77,132.52,52.77"/>
	<path class="st0" d="M116.26,52.77c-1.35,0-2.44-1.07-2.44-2.4c0-1.33,1.09-2.4,2.44-2.4c1.34,0,2.44,1.07,2.44,2.4
		C118.7,51.7,117.6,52.77,116.26,52.77"/>
	<path class="st0" d="M108.13,44.78c-1.35,0-2.44-1.07-2.44-2.4c0-1.33,1.09-2.4,2.44-2.4c1.35,0,2.44,1.07,2.44,2.4
		C110.57,43.7,109.48,44.78,108.13,44.78"/>
	<path class="st0" d="M124.39,44.78c-1.35,0-2.44-1.07-2.44-2.4c0-1.33,1.09-2.4,2.44-2.4c1.35,0,2.44,1.07,2.44,2.4
		C126.83,43.7,125.73,44.78,124.39,44.78"/>
	<path class="st0" d="M108.13,60.77c-1.35,0-2.44-1.07-2.44-2.4c0-1.33,1.09-2.4,2.44-2.4c1.35,0,2.44,1.07,2.44,2.4
		C110.57,59.69,109.48,60.77,108.13,60.77"/>
	<path class="st0" d="M124.39,60.77c-1.35,0-2.44-1.07-2.44-2.4c0-1.33,1.09-2.4,2.44-2.4c1.35,0,2.44,1.07,2.44,2.4
		C126.83,59.69,125.73,60.77,124.39,60.77"/>
	<path class="st0" d="M132.52,4.8c-0.5,0-0.98-0.15-1.36-0.41c-0.65-0.43-1.08-1.16-1.08-1.99s0.43-1.56,1.08-1.99
		c0.39-0.26,0.86-0.41,1.36-0.41c0.67,0,1.28,0.27,1.72,0.7s0.71,1.04,0.71,1.7s-0.27,1.26-0.71,1.69
		C133.8,4.53,133.19,4.8,132.52,4.8"/>
	<path class="st0" d="M116.26,4.8c-1.35,0-2.44-1.07-2.44-2.4c0-1.33,1.09-2.4,2.44-2.4c1.34,0,2.44,1.07,2.44,2.4
		C118.7,3.72,117.6,4.8,116.26,4.8"/>
	<path class="st0" d="M132.52,20.79c-0.5,0-0.98-0.15-1.36-0.41c-0.65-0.43-1.08-1.16-1.08-1.99s0.43-1.56,1.08-1.99
		c0.39-0.26,0.86-0.41,1.36-0.41c0.67,0,1.28,0.27,1.72,0.7c0.44,0.43,0.71,1.03,0.71,1.7c0,0.66-0.27,1.26-0.71,1.69
		C133.8,20.52,133.19,20.79,132.52,20.79"/>
	<path class="st0" d="M116.26,20.79c-1.35,0-2.44-1.07-2.44-2.4c0-1.33,1.09-2.4,2.44-2.4c1.34,0,2.44,1.07,2.44,2.4
		C118.7,19.72,117.6,20.79,116.26,20.79"/>
	<path class="st0" d="M108.13,12.79c-1.35,0-2.44-1.07-2.44-2.4c0-1.33,1.09-2.4,2.44-2.4c1.35,0,2.44,1.08,2.44,2.4
		C110.57,11.72,109.48,12.79,108.13,12.79"/>
	<path class="st0" d="M124.39,12.79c-1.35,0-2.44-1.07-2.44-2.4c0-1.33,1.09-2.4,2.44-2.4c1.35,0,2.44,1.08,2.44,2.4
		C126.83,11.72,125.73,12.79,124.39,12.79"/>
	<path class="st0" d="M108.13,28.78c-1.35,0-2.44-1.07-2.44-2.4c0-1.32,1.09-2.4,2.44-2.4c1.35,0,2.44,1.08,2.44,2.4
		C110.57,27.71,109.48,28.78,108.13,28.78"/>
	<path class="st0" d="M124.39,28.78c-1.35,0-2.44-1.07-2.44-2.4c0-1.32,1.09-2.4,2.44-2.4c1.35,0,2.44,1.08,2.44,2.4
		C126.83,27.71,125.73,28.78,124.39,28.78"/>
	<path class="st0" d="M100,100.75c-0.5,0-0.97-0.15-1.36-0.41c-0.65-0.43-1.08-1.16-1.08-1.99c0-0.83,0.43-1.56,1.08-1.99
		c0.39-0.26,0.86-0.41,1.36-0.41c0.67,0,1.28,0.27,1.72,0.7c0.44,0.43,0.71,1.04,0.71,1.7c0,0.66-0.27,1.26-0.71,1.69
		C101.28,100.48,100.67,100.75,100,100.75"/>
	<path class="st0" d="M100,68.76c-0.5,0-0.97-0.15-1.36-0.41c-0.65-0.43-1.08-1.16-1.08-1.99c0-0.83,0.43-1.56,1.08-1.99
		c0.39-0.26,0.86-0.41,1.36-0.41c0.67,0,1.28,0.27,1.72,0.7c0.44,0.44,0.71,1.04,0.71,1.7c0,0.66-0.27,1.26-0.71,1.7
		C101.28,68.5,100.67,68.76,100,68.76"/>
	<path class="st0" d="M83.74,68.76c-1.35,0-2.44-1.07-2.44-2.4s1.09-2.4,2.44-2.4c1.35,0,2.44,1.07,2.44,2.4
		S85.08,68.76,83.74,68.76"/>
	<path class="st0" d="M100,84.76c-0.5,0-0.97-0.15-1.36-0.41c-0.65-0.43-1.08-1.16-1.08-1.99c0-0.83,0.43-1.56,1.08-1.99
		c0.39-0.26,0.86-0.41,1.36-0.41c0.67,0,1.28,0.27,1.72,0.7c0.44,0.43,0.71,1.03,0.71,1.69c0,0.66-0.27,1.26-0.71,1.7
		C101.28,84.49,100.67,84.76,100,84.76"/>
	<path class="st0" d="M83.74,84.76c-1.35,0-2.44-1.07-2.44-2.4c0-1.33,1.09-2.4,2.44-2.4c1.35,0,2.44,1.07,2.44,2.4
		C86.18,83.68,85.08,84.76,83.74,84.76"/>
	<path class="st0" d="M75.61,76.76c-1.35,0-2.44-1.07-2.44-2.4c0-1.33,1.09-2.4,2.44-2.4c1.35,0,2.44,1.07,2.44,2.4
		C78.05,75.69,76.95,76.76,75.61,76.76"/>
	<path class="st0" d="M91.87,76.76c-1.35,0-2.44-1.07-2.44-2.4c0-1.33,1.09-2.4,2.44-2.4c1.35,0,2.44,1.07,2.44,2.4
		C94.31,75.69,93.22,76.76,91.87,76.76"/>
	<path class="st0" d="M91.87,92.75c-1.35,0-2.44-1.07-2.44-2.4c0-1.32,1.09-2.4,2.44-2.4c1.35,0,2.44,1.08,2.44,2.4
		C94.31,91.68,93.22,92.75,91.87,92.75"/>
	<path class="st0" d="M100,36.78c-0.5,0-0.97-0.15-1.36-0.41c-0.65-0.43-1.08-1.16-1.08-1.99s0.43-1.56,1.08-1.99
		c0.39-0.26,0.86-0.41,1.36-0.41c0.67,0,1.28,0.27,1.72,0.7c0.44,0.43,0.71,1.03,0.71,1.7c0,0.66-0.27,1.26-0.71,1.69
		C101.28,36.51,100.67,36.78,100,36.78"/>
	<path class="st0" d="M83.74,36.78c-1.35,0-2.44-1.08-2.44-2.4c0-1.33,1.09-2.4,2.44-2.4c1.35,0,2.44,1.07,2.44,2.4
		C86.18,35.71,85.08,36.78,83.74,36.78"/>
	<path class="st0" d="M100,52.77c-0.5,0-0.97-0.15-1.36-0.41c-0.65-0.43-1.08-1.16-1.08-1.99s0.43-1.56,1.08-1.99
		c0.39-0.26,0.86-0.41,1.36-0.41c0.67,0,1.28,0.27,1.72,0.7c0.44,0.43,0.71,1.03,0.71,1.69c0,0.66-0.27,1.26-0.71,1.7
		C101.28,52.5,100.67,52.77,100,52.77"/>
	<path class="st0" d="M83.74,52.77c-1.35,0-2.44-1.07-2.44-2.4c0-1.33,1.09-2.4,2.44-2.4c1.35,0,2.44,1.07,2.44,2.4
		C86.18,51.7,85.08,52.77,83.74,52.77"/>
	<path class="st0" d="M75.61,44.78c-1.35,0-2.44-1.07-2.44-2.4c0-1.33,1.09-2.4,2.44-2.4c1.35,0,2.44,1.07,2.44,2.4
		C78.05,43.7,76.95,44.78,75.61,44.78"/>
	<path class="st0" d="M91.87,44.78c-1.35,0-2.44-1.07-2.44-2.4c0-1.33,1.09-2.4,2.44-2.4c1.35,0,2.44,1.07,2.44,2.4
		C94.31,43.7,93.22,44.78,91.87,44.78"/>
	<path class="st0" d="M75.61,60.77c-1.35,0-2.44-1.07-2.44-2.4c0-1.33,1.09-2.4,2.44-2.4c1.35,0,2.44,1.07,2.44,2.4
		C78.05,59.69,76.95,60.77,75.61,60.77"/>
	<path class="st0" d="M91.87,60.77c-1.35,0-2.44-1.07-2.44-2.4c0-1.33,1.09-2.4,2.44-2.4c1.35,0,2.44,1.07,2.44,2.4
		C94.31,59.69,93.22,60.77,91.87,60.77"/>
	<path class="st0" d="M100,4.8c-0.5,0-0.97-0.15-1.36-0.41c-0.65-0.43-1.08-1.16-1.08-1.99s0.43-1.56,1.08-1.99
		C99.03,0.15,99.5,0,100,0c0.67,0,1.28,0.27,1.72,0.7c0.44,0.43,0.71,1.04,0.71,1.7s-0.27,1.26-0.71,1.69
		C101.28,4.53,100.67,4.8,100,4.8"/>
	<path class="st0" d="M83.74,4.8c-1.35,0-2.44-1.07-2.44-2.4c0-1.33,1.09-2.4,2.44-2.4c1.35,0,2.44,1.07,2.44,2.4
		C86.18,3.72,85.08,4.8,83.74,4.8"/>
	<path class="st0" d="M100,20.79c-0.5,0-0.97-0.15-1.36-0.41c-0.65-0.43-1.08-1.16-1.08-1.99s0.43-1.56,1.08-1.99
		c0.39-0.26,0.86-0.41,1.36-0.41c0.67,0,1.28,0.27,1.72,0.7c0.44,0.43,0.71,1.03,0.71,1.7c0,0.66-0.27,1.26-0.71,1.69
		C101.28,20.52,100.67,20.79,100,20.79"/>
	<path class="st0" d="M83.74,20.79c-1.35,0-2.44-1.07-2.44-2.4c0-1.33,1.09-2.4,2.44-2.4c1.35,0,2.44,1.07,2.44,2.4
		C86.18,19.72,85.08,20.79,83.74,20.79"/>
	<path class="st0" d="M75.61,12.79c-1.35,0-2.44-1.07-2.44-2.4c0-1.33,1.09-2.4,2.44-2.4c1.35,0,2.44,1.08,2.44,2.4
		C78.05,11.72,76.95,12.79,75.61,12.79"/>
	<path class="st0" d="M91.87,12.79c-1.35,0-2.44-1.07-2.44-2.4c0-1.33,1.09-2.4,2.44-2.4c1.35,0,2.44,1.08,2.44,2.4
		C94.31,11.72,93.22,12.79,91.87,12.79"/>
	<path class="st0" d="M75.61,28.78c-1.35,0-2.44-1.07-2.44-2.4c0-1.32,1.09-2.4,2.44-2.4c1.35,0,2.44,1.08,2.44,2.4
		C78.05,27.71,76.95,28.78,75.61,28.78"/>
	<path class="st0" d="M91.87,28.78c-1.35,0-2.44-1.07-2.44-2.4c0-1.32,1.09-2.4,2.44-2.4c1.35,0,2.44,1.08,2.44,2.4
		C94.31,27.71,93.22,28.78,91.87,28.78"/>
	<path class="st0" d="M67.48,68.76c-0.5,0-0.97-0.15-1.36-0.41c-0.65-0.43-1.08-1.16-1.08-1.99c0-0.83,0.43-1.56,1.08-1.99
		c0.39-0.26,0.86-0.41,1.36-0.41c0.67,0,1.28,0.27,1.72,0.7c0.44,0.44,0.71,1.04,0.71,1.7c0,0.66-0.27,1.26-0.71,1.7
		C68.76,68.5,68.15,68.76,67.48,68.76"/>
	<path class="st0" d="M67.48,36.78c-0.5,0-0.97-0.15-1.36-0.41c-0.65-0.43-1.08-1.16-1.08-1.99s0.43-1.56,1.08-1.99
		c0.39-0.26,0.86-0.41,1.36-0.41c0.67,0,1.28,0.27,1.72,0.7c0.44,0.43,0.71,1.03,0.71,1.7c0,0.66-0.27,1.26-0.71,1.69
		C68.76,36.51,68.15,36.78,67.48,36.78"/>
	<path class="st0" d="M51.22,36.78c-1.35,0-2.44-1.08-2.44-2.4c0-1.33,1.09-2.4,2.44-2.4c1.35,0,2.44,1.07,2.44,2.4
		C53.66,35.71,52.57,36.78,51.22,36.78"/>
	<path class="st0" d="M67.48,52.77c-0.5,0-0.97-0.15-1.36-0.41c-0.65-0.43-1.08-1.16-1.08-1.99s0.43-1.56,1.08-1.99
		c0.39-0.26,0.86-0.41,1.36-0.41c0.67,0,1.28,0.27,1.72,0.7c0.44,0.43,0.71,1.03,0.71,1.69c0,0.66-0.27,1.26-0.71,1.7
		C68.76,52.5,68.15,52.77,67.48,52.77"/>
	<path class="st0" d="M51.22,52.77c-1.35,0-2.44-1.07-2.44-2.4c0-1.33,1.09-2.4,2.44-2.4c1.35,0,2.44,1.07,2.44,2.4
		C53.66,51.7,52.57,52.77,51.22,52.77"/>
	<path class="st0" d="M43.09,44.78c-1.35,0-2.44-1.07-2.44-2.4c0-1.33,1.09-2.4,2.44-2.4c1.35,0,2.44,1.07,2.44,2.4
		C45.53,43.7,44.43,44.78,43.09,44.78"/>
	<path class="st0" d="M59.35,44.78c-1.35,0-2.44-1.07-2.44-2.4c0-1.33,1.09-2.4,2.44-2.4c1.34,0,2.44,1.07,2.44,2.4
		C61.79,43.7,60.69,44.78,59.35,44.78"/>
	<path class="st0" d="M59.35,60.77c-1.35,0-2.44-1.07-2.44-2.4c0-1.33,1.09-2.4,2.44-2.4c1.34,0,2.44,1.07,2.44,2.4
		C61.79,59.69,60.69,60.77,59.35,60.77"/>
	<path class="st0" d="M67.48,4.8c-0.5,0-0.97-0.15-1.36-0.41c-0.65-0.43-1.08-1.16-1.08-1.99s0.43-1.56,1.08-1.99
		C66.51,0.15,66.98,0,67.48,0c0.67,0,1.28,0.27,1.72,0.7c0.44,0.43,0.71,1.04,0.71,1.7s-0.27,1.26-0.71,1.69
		C68.76,4.53,68.15,4.8,67.48,4.8"/>
	<path class="st0" d="M51.22,4.8c-1.35,0-2.44-1.07-2.44-2.4c0-1.33,1.09-2.4,2.44-2.4c1.35,0,2.44,1.07,2.44,2.4
		C53.66,3.72,52.57,4.8,51.22,4.8"/>
	<path class="st0" d="M67.48,20.79c-0.5,0-0.97-0.15-1.36-0.41c-0.65-0.43-1.08-1.16-1.08-1.99s0.43-1.56,1.08-1.99
		c0.39-0.26,0.86-0.41,1.36-0.41c0.67,0,1.28,0.27,1.72,0.7c0.44,0.43,0.71,1.03,0.71,1.7c0,0.66-0.27,1.26-0.71,1.69
		C68.76,20.52,68.15,20.79,67.48,20.79"/>
	<path class="st0" d="M51.22,20.79c-1.35,0-2.44-1.07-2.44-2.4c0-1.33,1.09-2.4,2.44-2.4c1.35,0,2.44,1.07,2.44,2.4
		C53.66,19.72,52.57,20.79,51.22,20.79"/>
	<path class="st0" d="M43.09,12.79c-1.35,0-2.44-1.07-2.44-2.4c0-1.33,1.09-2.4,2.44-2.4c1.35,0,2.44,1.08,2.44,2.4
		C45.53,11.72,44.43,12.79,43.09,12.79"/>
	<path class="st0" d="M59.35,12.79c-1.35,0-2.44-1.07-2.44-2.4c0-1.33,1.09-2.4,2.44-2.4c1.34,0,2.44,1.08,2.44,2.4
		C61.79,11.72,60.69,12.79,59.35,12.79"/>
	<path class="st0" d="M43.09,28.78c-1.35,0-2.44-1.07-2.44-2.4c0-1.32,1.09-2.4,2.44-2.4c1.35,0,2.44,1.08,2.44,2.4
		C45.53,27.71,44.43,28.78,43.09,28.78"/>
	<path class="st0" d="M59.35,28.78c-1.35,0-2.44-1.07-2.44-2.4c0-1.32,1.09-2.4,2.44-2.4c1.34,0,2.44,1.08,2.44,2.4
		C61.79,27.71,60.69,28.78,59.35,28.78"/>
	<path class="st0" d="M34.96,36.78c-1.35,0-2.44-1.08-2.44-2.4c0-1.33,1.09-2.4,2.44-2.4c1.18,0,2.16,0.82,2.39,1.91
		c0.03,0.16,0.05,0.32,0.05,0.49s-0.02,0.33-0.05,0.48C37.12,35.96,36.14,36.78,34.96,36.78"/>
	<path class="st0" d="M34.96,4.8c-1.35,0-2.44-1.07-2.44-2.4c0-1.33,1.09-2.4,2.44-2.4c1.18,0,2.16,0.82,2.39,1.91
		c0.03,0.16,0.05,0.32,0.05,0.48c0,0.17-0.02,0.33-0.05,0.48C37.12,3.97,36.14,4.8,34.96,4.8"/>
	<path class="st0" d="M18.7,4.8c-1.35,0-2.44-1.07-2.44-2.4c0-1.33,1.09-2.4,2.44-2.4c1.35,0,2.44,1.07,2.44,2.4
		C21.14,3.72,20.04,4.8,18.7,4.8"/>
	<path class="st0" d="M34.96,20.79c-1.35,0-2.44-1.07-2.44-2.4c0-1.33,1.09-2.4,2.44-2.4c1.18,0,2.16,0.82,2.39,1.91
		c0.03,0.16,0.05,0.32,0.05,0.49s-0.02,0.33-0.05,0.48C37.12,19.97,36.14,20.79,34.96,20.79"/>
	<path class="st0" d="M18.7,20.79c-1.35,0-2.44-1.07-2.44-2.4c0-1.33,1.09-2.4,2.44-2.4c1.35,0,2.44,1.07,2.44,2.4
		C21.14,19.72,20.04,20.79,18.7,20.79"/>
	<path class="st0" d="M10.57,12.79c-1.35,0-2.44-1.07-2.44-2.4c0-1.33,1.09-2.4,2.44-2.4c1.35,0,2.44,1.08,2.44,2.4
		C13.01,11.72,11.91,12.79,10.57,12.79"/>
	<path class="st0" d="M26.83,12.79c-1.35,0-2.44-1.07-2.44-2.4c0-1.33,1.09-2.4,2.44-2.4c1.35,0,2.44,1.08,2.44,2.4
		C29.27,11.72,28.17,12.79,26.83,12.79"/>
	<path class="st0" d="M26.83,28.78c-1.35,0-2.44-1.07-2.44-2.4c0-1.32,1.09-2.4,2.44-2.4c1.35,0,2.44,1.08,2.44,2.4
		C29.27,27.71,28.17,28.78,26.83,28.78"/>
	<path class="st0" d="M2.44,4.8c-0.5,0-0.97-0.15-1.36-0.41C0.43,3.96,0,3.23,0,2.4s0.43-1.56,1.08-1.99C1.46,0.15,1.93,0,2.44,0
		c1.34,0,2.44,1.07,2.44,2.4C4.88,3.72,3.78,4.8,2.44,4.8"/>
</g>
<polygon class="st1" points="99.03,143.6 2.87,53.22 0,56.4 96.16,146.78 "/>
</svg>
