<?xml version="1.0" encoding="utf-8"?>
<!-- Generator: Adobe Illustrator 25.4.1, SVG Export Plug-In . SVG Version: 6.00 Build 0)  -->
<svg version="1.1" id="Capa_1" xmlns="http://www.w3.org/2000/svg" xmlns:xlink="http://www.w3.org/1999/xlink" x="0px" y="0px"
	 viewBox="0 0 512 512" style="enable-background:new 0 0 512 512;" xml:space="preserve">
<style type="text/css">
	.st0{fill:#E2E4F9;}
	.st1{fill:#7E1AFF;}
</style>
<g>
	<circle class="st0" cx="476" cy="263" r="20"/>
	<g>
		<circle class="st0" cx="448" cy="146" r="25"/>
		<circle class="st0" cx="356" cy="61" r="30"/>
		<circle class="st0" cx="219" cy="45" r="35"/>
	</g>
	<circle class="st0" cx="92" cy="130" r="40"/>
	<circle class="st0" cx="61" cy="306" r="45"/>
	<circle class="st0" cx="201" cy="452" r="50"/>
	<g>
		<circle class="st1" cx="452" cy="349" r="10"/>
		<path class="st1" d="M476,293c-16.5,0-30-13.5-30-30s13.5-30,30-30s30,13.5,30,30S492.5,293,476,293z M476,253
			c-5.5,0-10,4.5-10,10s4.5,10,10,10s10-4.5,10-10S481.5,253,476,253z"/>
		<path class="st1" d="M448,181c-19.3,0-35-15.7-35-35s15.7-35,35-35s35,15.7,35,35S467.3,181,448,181z M448,131
			c-8.3,0-15,6.7-15,15s6.7,15,15,15s15-6.7,15-15S456.3,131,448,131z"/>
		<path class="st1" d="M356,101c-22.1,0-40-17.9-40-40s17.9-40,40-40s40,17.9,40,40S378.1,101,356,101z M356,41c-11,0-20,9-20,20
			s9,20,20,20s20-9,20-20S367,41,356,41z"/>
		<path class="st1" d="M219,90c-24.8,0-45-20.2-45-45s20.2-45,45-45s45,20.2,45,45S243.8,90,219,90z M219,20c-13.8,0-25,11.2-25,25
			s11.2,25,25,25s25-11.2,25-25S232.8,20,219,20z"/>
		<path class="st1" d="M92,180c-27.6,0-50-22.4-50-50s22.4-50,50-50s50,22.4,50,50S119.6,180,92,180z M92,100c-16.5,0-30,13.5-30,30
			s13.5,30,30,30s30-13.5,30-30S108.5,100,92,100z"/>
		<path class="st1" d="M61,361c-30.3,0-55-24.7-55-55s24.7-55,55-55s55,24.7,55,55S91.3,361,61,361z M61,271c-19.3,0-35,15.7-35,35
			s15.7,35,35,35s35-15.7,35-35S80.3,271,61,271z"/>
		<path class="st1" d="M206.4,512c-5.1,0-9.4-3.8-9.9-8.9c-0.3-2.6,0.5-5.3,2.2-7.3s4.1-3.4,6.7-3.7c9.2-1,17.4-5,24-11.5
			c7.6-7.6,11.7-17.6,11.7-28.3c0-10.7-4.2-20.7-11.7-28.3c-7.6-7.5-17.6-11.7-28.3-11.7c-10.7,0-20.7,4.2-28.3,11.7
			c-6.4,6.4-10.3,14.5-11.4,23.4c-0.6,5-4.9,8.8-9.9,8.8c-0.4,0-0.8,0-1.2-0.1c-5.5-0.7-9.4-5.7-8.7-11.1c0.8-6.5,2.6-12.8,5.5-18.7
			c2.9-6.1,6.9-11.6,11.7-16.5c5.7-5.7,12.4-10.1,19.8-13.2c7.2-2.9,14.8-4.4,22.6-4.4h0.1c7.8,0,15.4,1.5,22.6,4.4
			c7.4,3,14.1,7.5,19.8,13.2c5.7,5.7,10.1,12.4,13.2,19.9c2.9,7.2,4.4,14.8,4.4,22.6s-1.5,15.4-4.4,22.6c-3,7.5-7.4,14.1-13.2,19.9
			c-4.9,4.9-10.6,8.9-16.8,11.9c-6.1,2.9-12.5,4.7-19.1,5.4C207.1,512,206.7,512,206.4,512L206.4,512z M165.4,497.4
			c-2.7,0-5.2-1-7.1-3c0,0,0,0,0,0c-3.9-3.9-3.8-10.3,0.1-14.1c1.9-1.9,4.4-2.9,7-2.9c2.7,0,5.2,1.1,7.1,3v0
			c3.9,3.9,3.8,10.3-0.1,14.1C170.6,496.4,168.1,497.4,165.4,497.4z"/>
	</g>
</g>
</svg>
