<?xml version="1.0" encoding="utf-8"?>
<!-- Generator: Adobe Illustrator 25.4.1, SVG Export Plug-In . SVG Version: 6.00 Build 0)  -->
<svg version="1.1" id="Calque_1" xmlns="http://www.w3.org/2000/svg" xmlns:xlink="http://www.w3.org/1999/xlink" x="0px" y="0px"
	 viewBox="0 0 512 512" style="enable-background:new 0 0 512 512;" xml:space="preserve">
<style type="text/css">
	.st0{fill:#635A9B;}
	.st1{fill:#534991;}
	.st2{fill:#A8A3C8;}
	.st3{fill:#756DA7;}
	.st4{fill:#867FB1;}
	.st5{fill:#9791BD;}
	.st6{fill:#BAB6D3;}
	.st7{fill:#CBC8DE;}
	.st8{fill:#DCDAE9;}
</style>
<path class="st0" d="M176.6,85.3c0,24.9-20.1,45-45,45c-24.9,0-45-20.1-45-45s20.1-45,45-45C156.5,40.3,176.6,60.4,176.6,85.3z"/>
<path class="st1" d="M301,45c0,24.9-20.1,45-45,45c-24.9,0-45-20.1-45-45s20.1-45,45-45C280.9,0,301,20.1,301,45z"/>
<path class="st2" d="M301,467c0,24.9-20.1,45-45,45c-24.9,0-45-20.1-45-45s20.1-45,45-45C280.9,422,301,442.1,301,467z"/>
<path class="st3" d="M100,190.8c0,24.9-20.1,45-45,45s-45-20.1-45-45s20.1-45,45-45S100,165.9,100,190.8z"/>
<path class="st4" d="M100,321.2c0,24.9-20.1,45-45,45s-45-20.1-45-45s20.1-45,45-45S100,296.4,100,321.2z"/>
<path class="st5" d="M176.6,426.7c0,24.9-20.1,45-45,45c-24.9,0-45-20.1-45-45s20.1-45,45-45C156.5,381.7,176.6,401.9,176.6,426.7z"
	/>
<path class="st6" d="M424.7,426.7c0,24.9-20.1,45-45,45s-45-20.1-45-45s20.1-45,45-45S424.7,401.9,424.7,426.7z"/>
<path class="st7" d="M501.3,321.2c0,24.9-20.1,45-45,45c-24.9,0-45-20.1-45-45s20.1-45,45-45C481.2,276.2,501.3,296.4,501.3,321.2z"
	/>
<path class="st8" d="M501.3,190.8c0,24.9-20.1,45-45,45c-24.9,0-45-20.1-45-45s20.1-45,45-45C481.2,145.8,501.3,165.9,501.3,190.8z"
	/>
</svg>
