<?xml version="1.0" encoding="utf-8"?>
<!-- Generator: Adobe Illustrator 25.4.1, SVG Export Plug-In . SVG Version: 6.00 Build 0)  -->
<svg version="1.1" id="Calque_1" xmlns="http://www.w3.org/2000/svg" xmlns:xlink="http://www.w3.org/1999/xlink" x="0px" y="0px"
	 viewBox="0 0 200 200" style="enable-background:new 0 0 200 200;" xml:space="preserve">
<path d="M107.62,97.48h-5.54v-5.45c0-1.29-1.07-2.34-2.38-2.34c-1.32,0-2.38,1.05-2.38,2.34v5.45h-5.54c-1.32,0-2.38,1.05-2.38,2.34
	c0,1.29,1.07,2.34,2.38,2.34h5.54v5.45c0,1.29,1.07,2.34,2.38,2.34c1.32,0,2.38-1.05,2.38-2.34v-5.45h5.54
	c1.32,0,2.38-1.05,2.38-2.34C110,98.53,108.94,97.48,107.62,97.48"/>
</svg>
