<?xml version="1.0" encoding="utf-8"?>
<!-- Generator: Adobe Illustrator 25.4.1, SVG Export Plug-In . SVG Version: 6.00 Build 0)  -->
<svg version="1.1" id="Layer_1" xmlns="http://www.w3.org/2000/svg" xmlns:xlink="http://www.w3.org/1999/xlink" x="0px" y="0px"
	 viewBox="0 0 512 512" style="enable-background:new 0 0 512 512;" xml:space="preserve">
<style type="text/css">
	.st0{fill:#FEC931;}
</style>
<path class="st0" d="M256,0C114.6,0,0,114.6,0,256s114.6,256,256,256s256-114.6,256-256S397.4,0,256,0z M158.4,353.2
	c-44.1-44.1-51.8-110.5-23.7-162.5c3.8-7,8.2-13.7,13.2-19.9h-23.5c-7.9,0-14.4-6.5-14.4-14.4s6.5-14.4,14.4-14.4l54.4,0.2h8.6
	c7.9,0,14.4,6.5,14.4,14.4v12.9v50.3c0,7.9-6.5,14.4-14.4,14.4s-14.4-6.5-14.4-14.4v-23.5c-8.2,11.5-13.9,24.2-16.8,37.4
	c-7.2,32.8,1.7,68.6,27.1,94.2c28.8,28.8,70.5,36.7,106.4,23.7v4.6c0,11.5,5.8,21.8,14.6,28C255.5,403.1,198,392.8,158.4,353.2z
	 M387.6,370.9H331h-6.7c-7.9,0-14.4-6.5-14.4-14.1v-14.4v-49.1c0-7.9,6.5-14.4,14.4-14.4c7.9,0,14.4,6.5,14.4,14.4v21.6
	c8.2-11.3,13.4-24,16.3-36.9c7-32.8-2.2-68.3-27.6-93.7c-28.5-28.5-69.8-36.7-105.5-24.2v-3.6c0-12-6.2-22.5-15.6-28.8
	c49.1-18.7,106.9-8.4,146.2,31.4c44.1,44.1,52,111,23.3,163.3c-3.6,7-8.2,13.7-13.2,19.9h24.9c7.9,0,14.4,6.5,14.4,14.4
	C402,364.5,395.5,370.9,387.6,370.9z"/>
</svg>
