<?xml version="1.0" encoding="utf-8"?>
<!-- Generator: Adobe Illustrator 25.4.1, SVG Export Plug-In . SVG Version: 6.00 Build 0)  -->
<svg version="1.1" id="Layer_1" xmlns="http://www.w3.org/2000/svg" xmlns:xlink="http://www.w3.org/1999/xlink" x="0px" y="0px"
	 viewBox="0 0 512 512" style="enable-background:new 0 0 512 512;" xml:space="preserve">
<style type="text/css">
	.st0{fill:url(#SVGID_1_);}
	.st1{fill:#EDF1FF;}
	.st2{fill:#D5D9FA;}
	.st3{fill:#FFFFFF;}
	.st4{fill:#7E1AFF;}
	.st5{fill:#FEC931;}
	.st6{fill:#A6A0F9;}
</style>
<linearGradient id="SVGID_1_" gradientUnits="userSpaceOnUse" x1="-830.6675" y1="-379.5813" x2="-1751.7587" y2="-175.5612" gradientTransform="matrix(1 0 0 -1 1334.8007 -54)">
	<stop  offset="0" style="stop-color:#D2DEFF;stop-opacity:0"/>
	<stop  offset="1" style="stop-color:#B7C5FF"/>
</linearGradient>
<path class="st0" d="M417.8,171.9c-8.4-8.4-18-14.9-28.7-19.7c-28-12.7-50-35.4-62.4-63.6C303.7,36.4,251.7,0,191.1,0
	C111.8-0.1,45.9,63.2,42.9,142.4c-1.2,33.9,8.9,65.4,26.9,91c22.9,32.5,28.8,73.8,17,111.7C70.1,399,75.9,450,107.8,481.9
	c55.9,55.9,170.6,31.8,256.2-53.8S473.7,227.8,417.8,171.9L417.8,171.9z"/>
<g>
	<path class="st1" d="M194.3,376h-23.7c-8.1,0-14.6-6.5-14.6-14.6V210.7c0-8.1,6.5-14.6,14.6-14.6h23.7c8.1,0,14.6,6.5,14.6,14.6
		v150.8C208.9,369.5,202.4,376,194.3,376z"/>
	<path class="st2" d="M194.3,196.1h-23.7c-0.2,0-0.3,0-0.5,0c7.8,0.3,14.1,6.7,14.1,14.6v150.8c0,7.9-6.3,14.3-14.1,14.6
		c0.2,0,0.3,0,0.5,0h23.7c8.1,0,14.6-6.5,14.6-14.6V210.7C208.9,202.6,202.4,196.1,194.3,196.1L194.3,196.1z"/>
	<path class="st1" d="M274.9,376h-23.7c-8.1,0-14.6-6.5-14.6-14.6v-80.9c0-8.1,6.5-14.6,14.6-14.6h23.7c8.1,0,14.6,6.5,14.6,14.6
		v80.9C289.5,369.5,283,376,274.9,376z"/>
	<path class="st2" d="M274.9,266h-23.7c-0.2,0-0.3,0-0.5,0c7.8,0.3,14.1,6.7,14.1,14.6v80.9c0,7.9-6.3,14.3-14.1,14.6
		c0.2,0,0.3,0,0.5,0h23.7c8.1,0,14.6-6.5,14.6-14.6v-80.9C289.5,272.5,283,266,274.9,266L274.9,266z"/>
	<path class="st1" d="M355.5,376h-23.7c-8.1,0-14.6-6.5-14.6-14.6V228c0-8.1,6.5-14.6,14.6-14.6h23.7c8.1,0,14.6,6.5,14.6,14.6
		v133.4C370.1,369.5,363.6,376,355.5,376L355.5,376z"/>
	<path class="st2" d="M355.5,213.4h-23.7c-0.2,0-0.3,0-0.5,0c7.8,0.2,14.1,6.7,14.1,14.6v133.4c0,7.9-6.3,14.3-14.1,14.6
		c0.2,0,0.3,0,0.5,0h23.7c8.1,0,14.6-6.5,14.6-14.6V228C370.1,220,363.6,213.4,355.5,213.4L355.5,213.4z"/>
	<path class="st1" d="M436.1,376h-23.7c-8.1,0-14.6-6.5-14.6-14.6V170.3c0-8.1,6.5-14.6,14.6-14.6h23.7c8.1,0,14.6,6.5,14.6,14.6
		v191.2C450.7,369.5,444.2,376,436.1,376L436.1,376z"/>
	<path class="st2" d="M436.1,155.7h-23.7c-0.1,0-0.3,0-0.4,0c7.8,0.2,14.1,6.7,14.1,14.6v191.2c0,7.9-6.3,14.3-14.1,14.6
		c0.1,0,0.3,0,0.4,0h23.7c8.1,0,14.6-6.5,14.6-14.6V170.3C450.7,162.2,444.2,155.7,436.1,155.7L436.1,155.7z"/>
	<g>
		<ellipse class="st3" cx="182.5" cy="141.4" rx="13.7" ry="13.7"/>
		<ellipse class="st3" cx="263.1" cy="224.5" rx="13.7" ry="13.7"/>
		<ellipse class="st3" cx="343.7" cy="160.1" rx="13.7" ry="13.7"/>
		<ellipse class="st3" cx="424.3" cy="95" rx="13.7" ry="13.7"/>
	</g>
	<path class="st4" d="M194.3,191.7h-23.7c-10.5,0-19,8.5-19,19v106.4c0,5.7,8.9,5.7,8.9,0V210.7c0-5.6,4.5-10.1,10.1-10.1h23.7
		c5.6,0,10.1,4.5,10.1,10.1v150.8c0,5.6-4.5,10.1-10.1,10.1h-23.7c-5.6,0-10.1-4.5-10.1-10.1v-18.3c0-5.7-8.9-5.7-8.9,0v18.3
		c0,10.5,8.5,19,19,19h23.7c10.5,0,19-8.5,19-19V210.7C213.4,200.2,204.8,191.7,194.3,191.7L194.3,191.7z"/>
	<path class="st4" d="M274.9,261.6h-23.7c-10.5,0-19,8.5-19,19v80.9c0,10.5,8.5,19,19,19h23.7c10.5,0,19-8.5,19-19v-80.9
		C294,270.1,285.4,261.6,274.9,261.6L274.9,261.6z M285.1,361.5c0,5.6-4.5,10.1-10.1,10.1h-23.7c-5.6,0-10.1-4.5-10.1-10.1v-80.9
		c0-5.6,4.5-10.1,10.1-10.1h23.7c5.6,0,10.1,4.5,10.1,10.1V361.5z"/>
	<path class="st4" d="M355.5,209h-23.7c-10.5,0-19,8.5-19,19v133.4c0,10.5,8.5,19,19,19h23.7c10.5,0,19-8.5,19-19v-96.6
		c0-5.7-8.9-5.7-8.9,0v96.6c0,5.6-4.5,10.1-10.1,10.1h-23.7c-5.6,0-10.1-4.5-10.1-10.1V228c0-5.6,4.5-10.1,10.1-10.1h23.7
		c5.6,0,10.1,4.5,10.1,10.1v10.2c0,5.7,8.9,5.7,8.9,0V228C374.6,217.5,366,209,355.5,209L355.5,209z"/>
	<path class="st4" d="M436.1,151.2h-23.7c-10.5,0-19,8.5-19,19v191.2c0,10.5,8.5,19,19,19h23.7c10.5,0,19-8.5,19-19V170.3
		C455.2,159.8,446.6,151.2,436.1,151.2L436.1,151.2z M446.3,361.5c0,5.6-4.5,10.1-10.1,10.1h-23.7c-5.6,0-10.1-4.5-10.1-10.1V170.3
		c0-5.6,4.5-10.1,10.1-10.1h23.7c5.6,0,10.1,4.5,10.1,10.1V361.5z"/>
	<path class="st4" d="M182.5,159.6c3.3,0,6.4-0.9,9-2.4l56.1,57.9c-1.2,1.9-2,4.1-2.5,6.4c-0.8,4.8,0.3,9.6,3.1,13.5
		c2.8,4,7,6.6,11.7,7.4c1,0.2,2.1,0.3,3.1,0.3c8.7,0,16.4-6.2,17.9-15v0c0.6-3.7,0.1-7.3-1.4-10.6l53-42.5c3.4,2.5,7.1,3.8,11.2,3.8
		c8.7,0,16.4-6.2,17.9-15c0.7-3.8,0.1-7.5-1.5-10.9l53.3-42.8c3,2.3,6.8,3.7,10.9,3.7c10,0,18.2-8.1,18.2-18.1s-8.1-18.1-18.2-18.1
		S406.1,85,406.1,95c0,2.7,0.6,5.2,1.7,7.5l-53.4,42.9c-2.2-1.6-4.8-2.7-7.6-3.2c-9.9-1.7-19.3,4.9-21,14.8
		c-0.6,3.6-0.2,7.2,1.3,10.4L274,210.1c-2.3-1.7-4.9-2.9-7.8-3.4c-4.3-0.8-8.6,0.1-12.1,2.2L197.9,151c1.7-2.8,2.7-6,2.7-9.5
		c0-10-8.1-18.1-18.2-18.1c-10,0-18.2,8.1-18.2,18.1S172.5,159.6,182.5,159.6L182.5,159.6z M424.3,85.8c5.1,0,9.3,4.1,9.3,9.2
		s-4.2,9.2-9.3,9.2c-5,0-9.3-4.2-9.3-9.2C415,89.9,419.2,85.8,424.3,85.8z M334.5,158.5c0.8-4.5,4.7-7.7,9.1-7.7
		c5.7,0,10,5.2,9.1,10.8c-0.9,5-5.7,8.4-10.7,7.5c-2.4-0.4-4.6-1.8-6-3.8C334.7,163.4,334.1,161,334.5,158.5L334.5,158.5z
		 M270.6,219.2c1.4,2,1.9,4.5,1.6,6.9c-0.9,5-5.7,8.4-10.7,7.5c-5-0.9-8.4-5.7-7.5-10.7C255.3,215,266,212.6,270.6,219.2z
		 M182.5,132.2c5.1,0,9.3,4.1,9.3,9.2c0,5.1-4.2,9.2-9.3,9.2c-5.1,0-9.3-4.1-9.3-9.2C173.2,136.3,177.4,132.2,182.5,132.2z"/>
</g>
<g>
	<g>
		<path class="st5" d="M359.2,420.9c0,7.3-5.9,13.2-13.2,13.2c-7.3,0-13.2-5.9-13.2-13.2s5.9-13.2,13.2-13.2
			S359.2,413.6,359.2,420.9z M349.2,420.9c0-1.8-1.5-3.2-3.2-3.2s-3.2,1.4-3.2,3.2c0,1.8,1.5,3.2,3.2,3.2S349.2,422.7,349.2,420.9z"
			/>
	</g>
	<g>
		<path class="st6" d="M393.7,58.4c0,7.3-5.9,13.2-13.2,13.2c-7.3,0-13.2-5.9-13.2-13.2s5.9-13.2,13.2-13.2S393.7,51.1,393.7,58.4z
			 M383.7,58.4c0-1.8-1.5-3.2-3.2-3.2s-3.2,1.5-3.2,3.2s1.5,3.2,3.2,3.2S383.7,60.2,383.7,58.4z"/>
	</g>
	<g>
		<path class="st6" d="M245.4,483.4c0,7.3-5.9,13.2-13.2,13.2c-7.3,0-13.2-5.9-13.2-13.2s5.9-13.2,13.2-13.2
			S245.4,476.1,245.4,483.4z M235.4,483.4c0-1.8-1.4-3.2-3.2-3.2s-3.2,1.4-3.2,3.2s1.5,3.2,3.2,3.2
			C233.9,486.6,235.4,485.2,235.4,483.4z"/>
	</g>
	<g>
		<path class="st4" d="M71.3,389.8l11.3,11.3c0.9,0.9,1.5,2.2,1.5,3.5s-0.5,2.6-1.5,3.5l-11.3,11.3c-2,1.9-5.1,1.9-7.1,0l-11.3-11.2
			c-2-2-2-5.1,0-7.1l11.3-11.3c1-1,2.3-1.5,3.5-1.5S70.3,388.8,71.3,389.8z M67.7,408.9l4.2-4.2l-4.2-4.2l-4.2,4.2L67.7,408.9z"/>
	</g>
	<g>
		<path class="st5" d="M68.5,154.3l11.3,11.3c0.9,0.9,1.5,2.2,1.5,3.5s-0.5,2.6-1.5,3.5l-11.3,11.3c-1.9,2-5.1,2-7.1,0l-11.3-11.3
			c-1.9-2-1.9-5.1,0-7.1l11.3-11.3c0.9-0.9,2.2-1.5,3.5-1.5C66.3,152.9,67.6,153.4,68.5,154.3z M65,173.4l4.2-4.2L65,165l-4.2,4.2
			L65,173.4z"/>
	</g>
</g>
</svg>
