<?xml version="1.0" encoding="utf-8"?>
<!-- Generator: Adobe Illustrator 25.4.1, SVG Export Plug-In . SVG Version: 6.00 Build 0)  -->
<svg version="1.1" id="Calque_1" xmlns="http://www.w3.org/2000/svg" xmlns:xlink="http://www.w3.org/1999/xlink" x="0px" y="0px"
	 viewBox="0 0 200 200" style="enable-background:new 0 0 200 200;" xml:space="preserve">
<style type="text/css">
	.st0{fill:#241F21;}
</style>
<polygon class="st0" points="63.2,110.26 51.04,97.41 38.88,110.26 26.71,97.41 14.55,110.26 1.02,95.97 3.75,90.83 14.55,102.24 
	26.71,89.39 38.88,102.24 51.04,89.39 63.2,102.24 75.36,89.39 87.53,102.24 99.69,89.39 111.85,102.24 124.02,89.39 136.19,102.24 
	148.35,89.39 160.52,102.24 172.68,89.39 184.85,102.24 195.66,90.83 198.38,95.97 184.85,110.26 172.68,97.41 160.52,110.26 
	148.35,97.41 136.19,110.26 124.02,97.41 111.85,110.26 99.69,97.41 87.53,110.26 75.36,97.41 "/>
</svg>
